<?xml version="1.0" standalone="no"?>
<!DOCTYPE svg PUBLIC "-//W3C//DTD SVG 1.1//EN" "http://www.w3.org/Graphics/SVG/1.1/DTD/svg11.dtd" >
<!--
2013-9-30: Created.
-->
<svg>
<metadata>
Created by iconfont
</metadata>
<defs>

<font id="iconfont" horiz-adv-x="1024" >
  <font-face
    font-family="iconfont"
    font-weight="500"
    font-stretch="normal"
    units-per-em="1024"
    ascent="896"
    descent="-128"
  />
    <missing-glyph />
    
    <glyph glyph-name="kehujiaobenduan" unicode="&#58946;" d="M832-104.32H291.2a112 112 0 0 0-112 112L106.24 731.52A113.28 113.28 0 0 0 218.24 847.36h543.36a37.76 37.76 0 1 0 0-74.88H218.24a37.12 37.12 0 0 1-37.12-37.12L256 11.52a38.4 38.4 0 0 1 37.76-40.96H832a37.12 37.12 0 0 1 37.12 37.12l-60.16 599.04a37.12 37.12 0 0 0 33.28 40.96 36.48 36.48 0 0 0 40.96-33.28l60.8-602.88A113.28 113.28 0 0 0 832-104.32zM263.04-106.24a251.52 251.52 0 0 0-256 188.8 67.84 67.84 0 0 0 11.52 59.52 68.48 68.48 0 0 0 53.76 26.24H204.8a37.12 37.12 0 0 0 0-74.24H80c42.24-144 199.04-128 206.08-124.16a37.76 37.76 0 0 0 42.24-32 38.4 38.4 0 0 0-32.64-42.24 256 256 0 0 0-32.64-1.92zM951.04 572.8H392.32a64 64 0 0 0-53.12 26.88 70.4 70.4 0 0 0-10.88 60.8 93.44 93.44 0 0 1-55.68 117.12 37.12 37.12 0 0 0 36.48 64 167.68 167.68 0 0 0 93.44-192h541.44C900.48 782.72 743.04 771.84 736 768a38.4 38.4 0 0 0-40.32 34.56 38.4 38.4 0 0 0 34.56 40.32 270.08 270.08 0 0 0 285.44-183.68 67.2 67.2 0 0 0-64-86.4zM640 325.12H411.52a38.4 38.4 0 0 0-37.76 37.76 37.76 37.76 0 0 0 37.76 37.12H640a37.12 37.12 0 0 0 37.12-37.12 37.76 37.76 0 0 0-37.12-37.76zM640 123.52H411.52a37.76 37.76 0 1 0 0 74.88H640a37.76 37.76 0 0 0 0-74.88z"  horiz-adv-x="1024" />

    
    <glyph glyph-name="piliangqueren" unicode="&#58944;" d="M927 264.8c-19.3 0-35-15.7-35-35V163H254.5V765.2h127c19.3 0 35 15.7 35 35s-15.7 35-35 35h-162c-19.3 0-35-15.7-35-35V675H97c-19.3 0-35-15.7-35-35v-672.1c0-19.3 15.7-35 35-35h707.5c19.3 0 35 15.7 35 35V93.1H927c19.3 0 35 15.7 35 35V229.8c0 19.4-15.7 35-35 35z m-157.5-262H132V604.9h52.5v-476.8c0-19.3 15.7-35 35-35h550v-90.3zM458.8 324.2c55.1-55.1 128.4-85.5 206.3-85.5s151.2 30.4 206.3 85.5c55.1 55.1 85.5 128.4 85.5 206.3s-30.4 151.2-85.5 206.3c-55 55.2-128.3 85.5-206.2 85.5S513.9 792 458.8 736.9c-55.1-55.1-85.5-128.4-85.5-206.3s30.4-151.3 85.5-206.4z m206.4 428.1c122.3 0 221.8-99.5 221.8-221.8s-99.5-221.8-221.8-221.8c-122.3 0-221.8 99.5-221.8 221.8s99.5 221.8 221.8 221.8zM624.6 444.7c6.8-6.8 15.8-10.3 24.7-10.3s17.9 3.4 24.7 10.3l123.7 123.7c13.7 13.7 13.7 35.8 0 49.5-13.7 13.7-35.8 13.7-49.5 0l-99-99-46.2 46.4c-13.7 13.7-35.8 13.7-49.5 0-13.7-13.7-13.7-35.8 0-49.5l71.1-71.1z"  horiz-adv-x="1024" />

    
    <glyph glyph-name="tianjia" unicode="&#58901;" d="M875.755678 520.502907 616.242156 520.502907 616.242156 780.021545c0 28.639271-23.221888 51.90209-51.900044 51.90209L460.529745 831.923636c-28.692482 0-51.897997-23.26589-51.897997-51.90209l0-259.517615L149.107993 520.50393c-28.689413 0-51.895951-23.220864-51.895951-51.904137l0-103.806227c0-28.694529 23.213701-51.90209 51.895951-51.90209l259.523755 0 0-259.518638c0-28.696576 23.213701-51.904137 51.897997-51.904137l103.812367 0c28.686343 0 51.900044 23.215748 51.900044 51.904137L616.242156 312.891476l259.517615 0c28.689413 0 51.900044 23.218818 51.900044 51.90209L927.659815 468.599793C927.661861 497.284089 904.439974 520.502907 875.755678 520.502907L875.755678 520.502907z"  horiz-adv-x="1024" />

    
    <glyph glyph-name="bianpai" unicode="&#58893;" d="M695.186-38.087c-8.381-5.372-19.326-4.859-27.676 1.241-0.588 0.45-28.198 20.029-129.23 74.859-56.044 30.347-105.063 65.124-148.283 95.79-37.821 26.815-73.536 52.119-108.686 71.008-26.182 13.945-42.271 37.519-44.207 64.515-2.234 31.327 15.005 63.535 43.935 82.077 17.188 11.015 36.366 16.23 56.034 15.729l-128.433 205.572c-17.578 28.947-35.842 92.465 19.298 127.806 20.97 12.991 42.169 16.334 62.588 10.445 33.922-9.812 54.173-41.41 58.541-48.931l61.004-89.9c6.313 9.775 15.138 18.439 26.454 25.692 29.135 18.22 55.648 22.334 80.009 12.868 5.467-2.069 10.482-4.727 14.964-7.726 7.481 11.947 18.43 22.124 34.391 30.701 21.705 11.727 44.307 13.937 65.437 6.465 9.872-3.536 18.677-8.811 26.509-15.161 7.803 12.377 20.274 21.948 36.483 27.673 58.64 20.715 103.958-29.084 120.352-59.242l55.547-86.319c2.429-3.562 69.3-102.959 77.632-239.108 5.696-92.894 7.645-114.381 8.155-119.174 0.566-2.65 0.781-5.45 0.501-8.189-0.774-7.953-5.335-15.169-12.138-18.774l-249.177-159.914zM308.849 308.002c-13.931-8.928-22.986-24.297-22.111-37.287 0.644-8.771 5.923-15.709 16.093-21.238 37.993-20.384 75.008-46.66 114.183-74.415 44.053-31.259 89.668-63.541 142.913-92.452 67.156-36.406 102.947-57.819 120.527-68.917l225.009 144.281c-1.415 17.242-3.534 48.867-7.246 109.067-7.424 121.674-68.175 211.886-68.757 212.788l-56.558 87.781c-0.411 0.639-0.77 1.317-1.159 2.045-0.989 1.774-25.731 46.615-59.259 34.769-2.779-0.953-5.187-2.124-7.216-3.424-3.364-2.155-13.452-8.621-4.645-34.225 3.693-7.878 5.532-13.1 5.532-13.1 4.485-12.637-1.197-26.219-12.892-31.232-11.783-4.99-25.741 0.22-32.076 11.978-0.597 1.047-3.42 6.393-6.299 14.41-10.966 22.64-25.098 38.812-37.957 43.367-5.036 1.743-13.185 3.298-26.237-3.71-17.298-9.431-26.666-19.727-14.71-43.311l14.241-20.465c7.682-11.044 6.076-25.929-3.83-34.083-9.682-8.394-24.518-6.978-33.75 2.837-1.122 1.165-10.468 11.289-18.71 26.267l-9.221 13.216c-1.39 2.045-2.509 4.265-3.331 6.605v0c0 0-7.186 18.737-20.793 23.867-11.318 4.27-25.616-2.333-35.643-8.533v0c-13.188-8.452-23.113-19.634-11.708-46.355l28.726-42.358c7.537-11.061 5.795-25.729-3.955-33.785-9.716-8.335-24.29-6.983-33.577 2.577-0.867 0.875-21.109 22.012-34.22 49.755l-102.208 150.54-1.302 2.032c-3.151 5.508-14.478 21.067-27.882 24.822-6.912 1.972-14.253 0.506-22.433-4.59v0c-29.361-18.817-8.524-55.084-6.027-59.209l166.244-265.979c6.56-10.48 5.141-23.889-3.462-31.962-8.5-8.011-21.749-8.597-31.553-1.172-35.748 27.092-62.765 15.201-72.746 8.805v0 0 0zM308.849 308.002zM151.254 815.45c-75.209-48.201-97.052-148.191-48.883-223.35 29.867-46.602 79.586-72.717 131.036-74.386l-30.241 47.187c-25.78 8.028-48.932 24.89-64.603 49.335-35.547 55.465-19.405 129.211 36.058 164.755 55.459 35.542 129.207 19.403 164.751-36.061 15.46-24.126 21.172-51.718 18.060-78.113l30.445-47.506c19.57 47.252 16.473 102.958-13.187 149.235-48.257 75.179-148.277 97.066-223.436 48.899v0zM151.254 815.45z"  horiz-adv-x="1024" />

    
    <glyph glyph-name="shujuku" unicode="&#58902;" d="M509.771 449.031c78.604 0 152.066 7.131 220.388 21.392 68.322 14.262 122.218 35.322 161.685 63.182v-84.574c0-22.884-17.081-44.111-51.242-63.678-34.16-19.568-80.594-35.074-139.298-46.515s-122.549-17.163-191.534-17.163-132.83 5.721-191.534 17.163-105.137 26.948-139.298 46.515c-34.161 19.568-51.242 40.794-51.242 63.678v84.574c39.468-27.86 93.362-48.92 161.685-63.182 68.322-14.261 141.784-21.392 220.388-21.392v0zM509.771 66.958c78.604 0 152.066 7.13 220.388 21.392 68.322 14.261 122.218 35.321 161.685 63.181v-84.573c0-22.885-17.081-44.112-51.242-63.679-34.16-19.568-80.594-35.073-139.298-46.515s-122.549-17.164-191.534-17.164c-68.985 0-132.83 5.721-191.534 17.164s-105.137 26.948-139.298 46.515c-34.161 19.568-51.242 40.794-51.242 63.679l-0 84.573c39.468-27.86 93.362-48.92 161.685-63.181 68.322-14.262 141.784-21.392 220.388-21.392v0zM509.771 257.994c78.604 0 152.066 7.131 220.388 21.393 68.322 14.261 122.218 35.321 161.685 63.181v-84.574c0-22.884-17.081-44.111-51.242-63.678-34.16-19.568-80.594-35.073-139.298-46.515-58.704-11.442-122.549-17.163-191.534-17.163s-132.83 5.721-191.534 17.163c-58.704 11.443-105.137 26.948-139.298 46.515-34.161 19.568-51.242 40.794-51.242 63.678v84.574c39.468-27.86 93.362-48.92 161.685-63.181 68.322-14.262 141.784-21.393 220.388-21.393v0zM509.771 831.105c68.985 0 132.83-5.721 191.534-17.163 58.704-11.444 105.136-26.948 139.298-46.515 34.161-19.568 51.242-40.794 51.242-63.679v-63.678c0-22.884-17.081-44.111-51.242-63.678-34.16-19.568-80.594-35.074-139.298-46.515s-122.549-17.163-191.534-17.163-132.83 5.721-191.534 17.163-105.137 26.948-139.298 46.515c-34.161 19.568-51.242 40.795-51.242 63.678v63.678c0 22.885 17.080 44.112 51.242 63.679 34.161 19.568 80.594 35.073 139.298 46.515 58.704 11.442 122.549 17.163 191.534 17.163v0z"  horiz-adv-x="1024" />

    
    <glyph glyph-name="yun" unicode="&#58904;" d="M797.648762 102.905974 216.498846 102.905974c-86.949304 0-152.509463 69.797669-152.509463 162.387437 0 78.391395 46.506197 141.086295 114.903983 157.852144 17.237593 83.930551 91.031273 145.437393 177.854711 145.437393 25.674753 0 50.959625-5.439896 74.122161-15.864316 43.666522 72.377424 120.952746 116.498294 206.467375 116.498294 133.267213 0 241.742786-108.907409 241.742786-242.84898 0-6.833639-0.284479-13.667278-0.838088-20.358677 49.64877-28.830629 81.023338-82.433454 81.023338-140.715859C959.266673 175.736723 886.781802 102.905974 797.648762 102.905974L797.648762 102.905974z"  horiz-adv-x="1024" />

    
    <glyph glyph-name="angledown" unicode="&#58907;" d="M563.193962 140.553409l372.989993 371.108133c29.42824 29.278837 29.547966 76.874855 0.268106 106.302071-29.278837 29.427216-76.871785 29.546943-106.300025 0.268106L510.447644 300.140057 192.352913 619.840356c-29.27986 29.42824-76.873832 29.547966-106.300025 0.270153-29.429263-29.27679-29.54899-76.871785-0.268106-106.302071l371.108133-372.986923c14.642488-14.716166 33.860179-22.098297 53.096289-22.146393C529.22429 118.62498 548.479843 125.91092 563.193962 140.553409L563.193962 140.553409z"  horiz-adv-x="1024" />

    
    <glyph glyph-name="angleleft" unicode="&#58908;" d="M271.306102 437.689806l371.903242 372.19693c29.341259 29.365818 76.937277 29.384237 106.302071 0.041956 29.363771-29.341259 29.383214-76.93523 0.041956-106.300025L430.78121 384.603751 749.801011 65.827497c29.365818-29.342282 29.384237-76.936253 0.042979-106.300025-29.340235-29.365818-76.93523-29.385261-106.302071-0.040932L271.348058 331.389782c-14.685467 14.673188-22.025643 33.907251-22.032806 53.143361C249.306043 403.767206 256.632915 423.008432 271.306102 437.689806L271.306102 437.689806z"  horiz-adv-x="1024" />

    
    <glyph glyph-name="angleright" unicode="&#58909;" d="M749.846036 437.689806 377.941771 809.886737c-29.341259 29.365818-76.9383 29.384237-106.302071 0.041956-29.363771-29.341259-29.383214-76.93523-0.041956-106.300025l318.773184-319.023894L271.351128 65.827497c-29.365818-29.342282-29.384237-76.936253-0.042979-106.300025 29.340235-29.365818 76.93523-29.385261 106.302071-0.040932l372.193861 371.903242c14.685467 14.673188 22.025643 33.907251 22.032806 53.143361C771.846096 403.767206 764.519224 423.008432 749.846036 437.689806L749.846036 437.689806z"  horiz-adv-x="1024" />

    
    <glyph glyph-name="angleup" unicode="&#58910;" d="M458.139302 619.180324 85.09405 248.128473c-29.432333-29.27372-29.560246-76.870762-0.284479-106.301048 29.27372-29.43131 76.867692-29.5582 106.300025-0.284479l319.752488 318.042543 318.045613-319.747371c29.275767-29.432333 76.868715-29.560246 106.300025-0.285502 29.433356 29.272697 29.560246 76.867692 0.284479 106.302071L564.439326 618.896868c-14.640442 14.718213-33.856086 22.103414-53.092195 22.154579C492.112044 641.103636 472.855468 633.820766 458.139302 619.180324L458.139302 619.180324z"  horiz-adv-x="1024" />

    
    <glyph glyph-name="tingzhi" unicode="&#58911;" d="M63.989383 830.90033 957.335694 830.90033 957.335694-62.445982 63.989383-62.445982 63.989383 830.90033Z"  horiz-adv-x="1024" />

    
    <glyph glyph-name="yunxing" unicode="&#58912;" d="M961.428919 387.166109 65.13037 831.283046 63.989383-63.583898 961.428919 387.166109Z"  horiz-adv-x="1024" />

    
    <glyph glyph-name="handright" unicode="&#58913;" d="M949.990403 522.941446c-11.07422 34.735106-40.750099 57.247842-85.768409 58.016345-50.837852 0.867764-101.531418 0.154519-152.373363 0.154519-85.150332 0-170.299641 0-258.231319 0 13.907755 12.209066 25.962302 18.170848 38.479383 28.370141 48.524157 39.562041 42.034349 112.965841-23.179932 141.247978-37.397748 16.226566-73.250304 8.963139-104.311741-18.23634-56.870242-49.760311-113.430422-99.676164-169.837106-149.437497-5.562692-4.790096-10.662851-7.108908-18.235316-7.108908-34.770921 0.309038-69.541843 0-104.312764 0.309038-6.336312 0-9.117658-1.081635-9.117658-8.498558 0.154519-165.509545 0.154519-331.327104 0-497.146711 0-6.181793 1.545192-7.881504 7.881504-7.881504 36.161594 0.155543 72.477708 0 108.639303 0.155543 6.490831 0 12.209066-1.237177 17.771759-4.173043 25.808806-14.063297 51.615565-27.816532 77.577866-41.724287 4.790096-2.626827 9.581216-3.708462 15.144932-3.708462 91.64014 0 183.125761 0 274.457886 0 10.04375 0 19.470447 1.545192 29.052686 4.0175 47.90608 11.589966 65.214281 48.215118 62.741973 83.604116-1.236154 15.45397-6.954389 29.208229-16.225543 41.724287 31.988552 9.117658 57.178257 25.808806 68.613704 57.3338 11.589966 32.453133 2.62785 61.042261-20.707624 84.84027 45.89733 31.371498 56.869219 70.933539 30.443359 120.230292 47.907103 0 95.040586 0 141.865032 0 10.663874 0 21.172205 0.926092 31.527041 4.172019C943.964152 424.810474 971.471646 477.353155 949.990403 522.941446L949.990403 522.941446zM175.450964 121.749134c0-7.417947-1.855254-9.272177-9.118682-9.118682-19.162432 0.464581-28.229948 0.309038-47.546899 0-5.563716-0.154519-6.79987 1.390673-6.79987 6.955412 0.154519 141.710512 0.154519 257.540587 0 399.096581 0 5.718235 1.390673 7.416923 7.263427 7.263427 19.62599-0.309038 28.849048-0.309038 48.475038 0 6.336312 0.154519 7.728008-1.700735 7.728008-7.881504-0.155543-70.468958-0.155543-126.787638-0.155543-197.256596C175.295422 250.646829 174.986383 192.06255 175.450964 121.749134L175.450964 121.749134zM901.570623 488.671944c-1.912559-18.237363-19.414165-35.885302-40.005133-39.709397-5.588275-1.029446-11.17655-1.324158-16.765849-1.324158-66.624397-0.147356-133.542482-0.147356-200.167902 0.146333-7.058766 0-9.854439-1.76418-8.676613-8.823969 0.146333-1.029446 0-2.206248 0-3.38305 0-7.059789-1.912559-14.854313 0.441045-21.030989 2.647293-6.766101 12.354376-3.38305 18.531052-6.325056 6.912433-3.234671 13.824867-6.617721 19.413142-11.912307 21.620413-20.296255 16.913205-52.358485-9.558703-67.801199-12.059664-6.912433-25.15082-8.236592-38.533618-7.354502-6.471388 0.294712-9.708106-1.175779-8.383948-8.236592 0.147356-1.323135 0-2.940982 0-4.26514 0-7.058766-1.765203-14.70798 0.442068-21.030989 2.794649-7.353478 12.20702-3.088338 18.383696-6.030343 7.647167-3.970428 15.295358-7.353478 21.178345-13.824867 29.121248-31.326473 1.176802-66.329684-25.88453-71.918983-15.149025-3.234671-30.297027-1.029446-45.592384-1.765203-6.766101-0.294712-15.442714 2.942005-19.414165-1.175779-4.26514-4.117784-0.88209-12.942777-1.323135-19.560498 0-0.294712 0-0.441045 0-0.883113 0-13.236466 0-12.941753 12.500709-16.178471 10.883885-2.64627 20.884656-7.647167 28.238135-16.178471 9.559727-11.17655 13.722536-40.59558 8.134261-55.449893-6.471388-17.796318-19.708877-28.532847-38.092573-32.355919-4.853541-1.029446-10.000771-1.324158-15.149025-1.470491-83.390245 0-166.780491 0-250.17176-0.147356-4.853541 0-9.266038 1.029446-13.530155 3.530406-21.030989 12.647041-42.063001 25.296129-63.241346 37.650505-4.412496 2.499937-6.324032 5.14723-6.324032 10.441816 0.146333 140.454916 1.572822 297.387108 1.425466 437.988356 0 4.412496 0.734734 7.795547 4.412496 11.030218 54.56371 47.798633 109.128443 96.039333 163.54582 143.984299 18.678408 16.47216 40.004109 19.120476 62.359256 10.737552 32.94432-12.354376 21.309328-48.53439-4.869914-72.066339-30.885428-27.79709-62.065568-55.152111-93.244684-82.655512-4.26514-3.970428-8.676613-9.697873-14.854313-15.432481 28.532847 0 72.522734 0 98.408287 0 133.542482 0 266.791276 0 400.333758 0 8.53028 0 16.765849-0.512676 25.001417-3.895727C891.422496 523.760091 903.628492 507.791397 901.570623 488.671944L901.570623 488.671944z"  horiz-adv-x="1024" />

    
    <glyph glyph-name="dialog1" unicode="&#59307;" d="M251.108 384.002h447.239v-37.274h-447.239v37.274zM251.108 495.812h372.707v-37.274h-372.707v37.274zM884.704 793.967h-745.402c-41.165 0-74.54-33.368-74.54-74.537v-484.513c0-41.169 33.375-74.537 74.54-74.537l149.083-0.004c6.664-40.3-0.935-119.476-37.277-186.346 133.806 20.584 255.173 128.149 298.167 186.346l335.43 0.004c41.165 0 74.533 33.368 74.533 74.537v484.514c-0.001 41.169-33.369 74.536-74.534 74.536zM921.971 234.919c0-20.584-16.686-37.267-37.266-37.267l-372.703-0c0 0-113.089-144.917-186.349-149.079 19.779 68.103 0 149.079 0 149.079h-186.35c-20.581 0-37.266 16.682-37.266 37.267v484.513c0 20.584 16.686 37.266 37.266 37.266h745.402c20.581 0 37.266-16.682 37.266-37.266l-0-484.513zM251.108 607.622h484.513v-37.274h-484.513v37.274z"  horiz-adv-x="1024" />

    
    <glyph glyph-name="user1" unicode="&#59308;" d="M511.999-56.35c-242.454 0-438.999 196.546-438.999 438.999s196.542 438.999 438.999 438.999c242.448 0 438.999-196.546 438.999-438.999s-196.55-438.999-438.999-438.999zM511.999 785.064c-222.255 0-402.419-180.165-402.419-402.415 0-222.246 180.165-402.412 402.419-402.412 222.246 0 402.412 180.165 402.412 402.412 0 222.25-180.165 402.415-402.412 402.415zM739.191 144.737c-59.111 56.529-138.946 91.582-227.201 91.582s-168.096-35.047-227.214-91.575c-8.893 8.495-17.422 17.344-25.312 26.782 47.879 45.732 108.188 78.445 175.278 92.932-41.35 32.321-69.081 89.317-69.081 154.777 0 101.018 65.514 182.913 146.336 182.913 80.816 0 146.33-81.895 146.33-182.913 0-65.447-27.719-122.433-69.054-154.758 67.111-14.453 127.471-47.101 175.355-92.83-7.933-9.486-16.5-18.375-25.437-26.911zM621.744 419.236c0 80.816-49.135 146.333-109.746 146.333-60.614 0-109.757-65.517-109.757-146.333 0-80.82 49.142-146.336 109.757-146.336 60.611 0 109.746 65.517 109.746 146.336z"  horiz-adv-x="1024" />

    
    <glyph glyph-name="wenti1" unicode="&#59309;" d="M959.399 0.273l-100.361 75.271h-539.401c-41.573 0-75.267 33.697-75.267 75.267v37.634h-87.821l-100.353-75.271v564.504c0 41.57 33.697 75.267 75.267 75.267h602.141c41.562 0 75.26-33.697 75.26-75.267v-150.529h75.275c41.573 0 75.271-33.702 75.271-75.271l-0.007-451.603zM771.232 677.676c0 20.785-16.849 37.637-37.63 37.637h-602.141c-20.781 0-37.637-16.853-37.637-37.637v-489.231l50.185 37.63h589.593c20.781 0 37.63 16.853 37.63 37.637v413.965zM921.768 150.81c0 0 0 2.202 0 6.232 0 43.078 0 294.831 0 294.831 0 20.785-16.849 37.637-37.634 37.637h-75.275v-225.801c0-41.57-33.697-75.267-75.26-75.267h-451.601v-37.634c0-20.785 16.849-37.637 37.637-37.637h551.951l50.18-37.63v75.267zM532.126 288.036l-35.718 35.718c-24.553-13.853-52.494-22.411-82.693-22.411-93.531 0-169.347 75.82-169.347 169.347 0 93.531 75.816 169.351 169.347 169.351s169.354-75.82 169.354-169.351c0-49.581-21.684-93.76-55.645-124.733l18.001-6.984h75.267v-37.63h-75.264l-13.303-13.306zM545.433 470.692c0 72.746-58.967 131.72-131.717 131.72-72.742 0-131.717-58.976-131.717-131.72 0-72.742 58.976-131.717 131.717-131.717 19.727 0 38.263 4.637 55.062 12.413l-49.553 49.553 26.61 26.61 54.979-54.979c27.165 24.13 44.619 58.934 44.619 98.122z"  horiz-adv-x="1024" />

    
    <glyph glyph-name="zhixingzhongduan" unicode="&#59233;" d="M255.842 502.65h134.9l82.277 112.491h-217.18c-97.334 0-176.539-79.203-176.539-176.534v-102.262c0-97.334 79.205-176.535 176.539-176.535h217.18l-84.036 112.491h-133.143c-35.318 0-64.046 28.727-64.046 64.046v102.262c-0.001 35.318 28.726 64.045 64.046 64.045v0zM760.953 615.139h-217.184l82.277-112.491h134.901c35.321 0 64.046-28.726 64.046-64.045v-102.262c0-35.318-28.726-64.046-64.046-64.046h-133.148l-84.036-112.491h217.184c97.329 0 176.535 79.205 176.535 176.535v102.262c0 97.334-79.206 176.534-176.535 176.534v0zM481.317 820.163h54.159v-137.151h-54.159v137.151zM695.484 735.023l-38.286 38.286-110.899-91.173 38.282-38.286 110.901 91.173zM470.496 682.137l-110.899 91.173-38.282-38.286 110.897-91.173 38.285 38.286zM481.317 91.055h54.159v-137.147h-54.159v137.147zM546.297 91.933l110.899-91.174 38.286 38.286-110.901 91.173-38.282-38.285zM321.314 39.043l38.282-38.286 110.899 91.174-38.285 38.285-110.897-91.173z"  horiz-adv-x="1024" />

    
    <glyph glyph-name="zhuye1" unicode="&#58914;" d="M961.669 468.359l-433.625 313.362-471.384-313.362-28.951 28.951 492.988 332.638h17.013l452.902-332.638-28.946-28.951zM148.38 428.676l372.322 240.927h17.013l332.242-240.927v-440.968c0-22.142-17.948-40.084-40.091-40.084h-200.435c-22.142 0-40.087 17.944-40.087 40.084v320.704h-160.351v-320.704c0-22.142-17.948-40.084-40.087-40.084h-200.435c-22.145 0-40.091 17.944-40.091 40.084v429.021l-0.409 0.406 0.409 0.278v11.264zM188.471-12.292h200.435v320.704c0 22.135 17.948 40.084 40.087 40.084h160.351c22.142 0 40.087-17.948 40.087-40.084v-320.704h200.435v409.066l-301.82 224.596-339.583-225.516 0.006-408.143z"  horiz-adv-x="1024" />

    
    <glyph glyph-name="caozuokubanben" unicode="&#59549;" d="M512.128937 82.497155L146.906861 250.572128l-84.440157-35.969213L512.150426 7.675052l446.206528 206.925817-83.789335 35.980469-362.438682-168.084183z m446.230064 306.863946l-83.791382 35.97126-362.438682-168.079067-365.221053 168.069857-84.443227-35.95898 449.684746-206.932979 446.209598 206.929909z m-0.001024 181.400467L512.150426 762.338814 62.467727 570.761568l449.687816-206.927863 446.202434 206.927863z m-740.294496-2.574639L511.636726 693.273832l291.332205-125.086903-291.334251-135.109164-293.571199 135.109164z"  horiz-adv-x="1024" />

    
    <glyph glyph-name="IPdizhi" unicode="&#59550;" d="M235.256048 660.076756c35.863812 35.863812 77.620845 64.019059 124.110669 83.680864 48.116881 20.35049 99.246375 30.66951 151.970181 30.66951 52.722782 0 103.851253-10.317996 151.968133-30.66951 46.489824-19.662829 88.24481-47.817052 124.111692-83.680864 35.863812-35.863812 64.018036-63.609737 83.680865-110.100584l52.010561-0.419555c-23.212678 69.309552-56.378032 111.068631-95.762018 150.451593-41.031509 41.032532-88.824001 73.252351-142.04411 95.760994-55.115272 23.309892-113.64634 35.130102-173.96717 35.130102-60.321854 0-118.852922-11.819187-173.968194-35.130102-53.220109-22.508643-101.012601-54.728462-142.04411-95.760994-41.034579-41.031509-78.180594-84.880179-95.760994-149.517315l52.011584-0.514723c19.662829 46.490847 47.817052 74.236771 83.682911 110.100584zM787.413654 107.923244c-35.863812-35.866882-77.621868-64.022129-124.110669-83.684958-48.116881-20.351514-99.246375-30.671557-151.968134-30.671556-52.722782 0-103.852276 10.31902-151.968134 30.671556-46.489824 19.662829-88.246857 47.818075-124.111692 83.684958-35.863812 35.865859-64.019059 59.875692-83.682911 106.365516l-52.011584 0.418532c22.508643-53.220109 54.729485-105.682971 95.759971-146.716526 41.034579-41.034579 88.824001-73.255421 142.045133-95.764064 55.116295-23.312962 113.647363-35.132148 173.968194-35.132148 60.321854 0 118.851898 11.821233 173.968193 35.132148 53.220109 22.509666 101.009532 54.731532 142.043087 95.764064 41.034579 41.034579 73.252351 93.495394 95.760994 146.716526l-57.616232-0.418532c-19.660782-46.489824-42.210357-70.498634-78.076216-106.365516zM178.045045 271.545812l33.889855 151.407362 34.663474-151.407362h51.007721l64.312748 222.330668 63.272046-222.330668h51.625797l33.890878 151.407362 34.661428-151.407362h51.008744l64.23293 222.077911 63.345724-222.077911h51.587935l33.92874 151.407362 34.623565-151.407362h51.086516l64.493873 222.896556h-52.438303l-38.372959-144.42432-33.464159 144.42432H784.122701l-34.624589-144.42432-37.520545 144.42432H608.435353l-38.257326-144.42432-33.540907 144.42432h-51.202149l-34.585703-144.42432-37.560454 144.42432H309.661665l-38.254255-144.42432-33.542954 144.42432h-51.202149l-34.585703-144.42432-37.560454 144.42432H62.966077l63.452147-222.896556h51.626821z"  horiz-adv-x="1024" />

    
    <glyph glyph-name="yuID" unicode="&#59551;" d="M923.531797 558.760233c-22.555715 53.337789-54.846142 101.231589-95.972818 142.357241-41.126676 41.125653-89.021499 73.41608-142.358265 95.978959-55.229882 23.360034-113.886817 35.205826-174.333514 35.205826-60.46 0-119.115911-11.845793-174.351933-35.205826-53.337789-22.562878-101.235682-54.853305-142.364405-95.978959a451.169563 451.169563 0 0 1-43.703361-50.720171 21.429055 21.429055 0 0 1-1.38658-1.898233 446.025403 446.025403 0 0 1-50.889018-89.739861c-23.361057-55.233975-35.205826-113.891933-35.205826-174.33863 0-60.452837 11.845793-119.115911 35.204803-174.345794 22.562878-53.337789 54.855352-101.231589 95.979982-142.357241 41.126676-41.132816 89.025593-73.423243 142.362358-95.978959 55.236022-23.361057 113.89091-35.207873 174.351933-35.207873 60.44772 0 119.104655 11.845793 174.332491 35.207873 53.337789 22.555715 101.232612 54.852282 142.358265 95.978959 41.126676 41.125653 73.417103 89.019453 95.972819 142.357241 23.366174 55.229882 35.21299 113.89398 35.212989 174.345794 0.004093 60.445674-11.843746 119.103632-35.20992 174.339654m-75.422783-391.110699c-31.486108 16.264429-69.036329 30.263258-110.538559 41.193191 10.958586 47.720861 17.384949 99.035574 18.856464 152.029532h154.529469c-4.00522-69.489654-25.667589-135.633097-62.847374-193.222723M110.753453 360.87328h154.50798c1.471514-52.989865 7.902994-104.308671 18.865673-152.029532-41.507346-10.929934-79.051427-24.922622-110.528326-41.193191-37.175691 57.588603-58.846246 123.732046-62.845327 193.222723m65.223491 243.960291c31.255865-15.896038 68.333318-29.562293 109.22361-40.260959-11.620665-49.012274-18.418488-101.922321-19.939121-156.612921H110.753453c4.084015 70.962192 26.585495 138.435932 65.223491 196.87388m311.34398-196.87388H312.36831c1.49505 51.241035 7.875365 100.629885 18.705014 146.182361 49.444109-9.688663 101.822037-15.204283 156.248624-16.429181v-129.754203h-0.001024m0-47.085388v-124.889405c-54.831816-1.235131-107.578134-6.823406-157.344584-16.648169-10.1645 44.26004-16.159028 92.036159-17.609053 141.537574h174.953637m47.086412 0h174.912705c-1.443885-49.507554-7.436366-97.284697-17.597797-141.537574-49.765427 9.822716-102.501512 15.413038-157.315931 16.648169V360.87328h0.001023m0 47.086411V537.711847c54.409191 1.231037 106.773815 6.741541 156.214854 16.436345 10.822486-45.558615 17.204847-94.947466 18.697851-146.188501H534.407336m0 176.848801V782.266679c16.405645-4.115738 32.55444-12.525268 48.231491-25.174356 23.955598-19.338441 45.692668-47.451732 64.61053-83.550904 11.812023-22.540366 22.046109-47.315632 30.638811-73.821309-44.878117-8.541537-93.481068-13.681604-143.480832-14.911618M439.095573 757.093347c15.676028 12.649088 31.818683 21.058618 48.226375 25.175379V584.809515c-50.018184 1.228991-98.626251 6.371104-143.504368 14.906502 8.593725 26.511817 18.839067 51.287083 30.652114 73.827449 18.921955 36.099173 40.664142 64.210417 64.625879 83.549881m48.225351-568.206117V-13.435755c-16.405645 4.112668-32.549324 12.526291-48.226374 25.17538-23.960715 19.337417-45.703925 47.449685-64.62588 83.550904-12.493545 23.836895-23.242354 50.167586-32.134884 78.408791 45.294602 8.704243 94.41944 13.941524 144.987138 15.18791m95.317903-177.149652c-15.676028-12.655228-31.825846-21.062711-48.231491-25.175379V188.88723c50.550303-1.246387 99.669-6.483668 144.958486-15.18791-8.886391-28.247344-19.633153-54.578036-32.117488-78.408791-18.916838-36.107359-40.654932-64.213487-64.609507-83.552951m173.789115 396.222113c-1.521656 54.69674-8.319479 107.606787-19.928888 156.619061 40.884153 10.69969 77.967746 24.365944 109.236913 40.256865 38.630832-58.43897 61.137429-125.912711 65.216327-196.873879H756.427942v-0.002047m37.833677 259.865539a409.679613 409.679613 0 0 0 22.72149-24.702611c-27.073612-13.025665-58.494229-24.146956-92.975554-33.089629-9.683547 30.66951-21.411659 59.331293-35.049261 85.364203-13.564947 25.888624-28.594245 48.354288-44.783972 67.199494 55.82647-19.636223 107.000989-51.684126 150.087297-94.771457m-416.698471 94.778621c-16.198937-18.845207-31.229259-41.317011-44.792159-67.205635-13.648858-26.03291-25.38311-54.701856-35.071773-85.36932-34.486442 8.942673-65.900919 20.069081-92.968391 33.093723 7.202029 8.487302 14.759145 16.737196 22.720467 24.696472 43.088354 43.093471 94.26799 75.148537 150.111856 94.78476m-150.113903-661.598157a409.258011 409.258011 0 0 0-25.629727 28.152177c27.360138 13.46364 59.312874 24.943089 94.497211 34.148751 9.946536-32.364105 22.141276-62.570058 36.45426-89.87903 13.563924-25.886577 28.593222-48.360428 44.792159-67.199495-55.843866 19.636223-107.023502 51.686173-150.113903 94.777597m416.720984-94.771457c16.193821 18.839067 31.219026 41.311895 44.783972 67.198472 14.305821 27.298739 26.494421 57.506738 36.436864 89.86982 35.176151-9.205663 67.138096-20.686135 94.500281-34.144658a408.718729 408.718729 0 0 0-25.628704-28.152177c-43.087331-43.086307-94.26185-75.135234-150.092413-94.771457m0 0"  horiz-adv-x="1024" />

    
    <glyph glyph-name="xiangqing" unicode="&#59552;" d="M138.633431 420.57808c6.675026-1.140986 439.32684-0.908696 443.772082 0.248663-1.487887 1.497097-2.697435 2.824325-4.02057 4.027734-42.166355 38.33612-84.343967 76.659961-126.518508 114.987894-1.391696 1.26583-2.788509 2.532683-4.113691 3.868097-14.045901 14.153348-14.57188 36.524868-1.216711 51.093679 13.354146 14.56881 35.754319 16.133446 50.997487 3.358491 6.161327-5.16258 11.978822-10.734482 17.931395-16.143679 52.305273-47.535643 104.594173-95.090728 156.915819-142.607952 17.171078-15.59314 26.204825-34.825157 25.761733-58.112535-0.405229-21.279652-8.820899-39.117926-24.381293-53.558823-8.904811-8.265244-17.965164-16.363689-26.954909-24.536837-49.005111-44.551682-98.026594-89.085968-146.999982-133.671418-10.140964-9.231245-21.866007-12.632715-35.110659-9.29776-13.732769 3.457752-22.750143 12.432147-26.459628 26.033933-3.714602 13.620206-0.438998 25.968441 9.67843 35.824926 10.536984 10.263761 21.653159 19.934005 32.541137 29.835516 32.54216 29.588899 65.097624 59.161425 97.640808 88.748276 1.369184 1.24434 2.664689 2.566452 4.52813 4.367471-1.735527 0.419556-2.769067 0.822738-3.826142 0.892323-1.87572 0.12382-3.76372 0.049119-5.645581 0.049119-155.908886 0-311.818795-0.007163-467.72768 0.036839-4.600785 0.001023-9.330506-0.028653-13.778818 0.951675-17.184381 3.787256-28.700669 18.532075-28.67918 36.491099 0.074701 63.850214 12.788258 125.107369 39.438221 183.129854 47.016827 102.369505 121.959679 177.277566 224.108151 224.721111 38.694277 17.97028 79.405491 29.433356 121.682363 35.447327 30.278607 4.308119 60.693314 5.672186 91.130534 3.566222 105.706507-7.315616 198.029192-46.591131 275.93247-118.42825 69.166289-63.780629 113.734344-142.103462 134.135999-233.992265 7.969509-35.898605 11.06194-72.303746 9.807367-109.079324-3.306302-96.947006-34.399461-184.083575-93.996814-260.467244-67.270103-86.218664-154.911162-140.878564-261.821078-164.228365-36.439934-7.958252-73.42836-10.827603-110.679775-9.219989-179.721221 7.754614-330.801125 118.277824-396.692834 278.440594-9.103332 22.12695 3.419889 45.13292 23.941272 50.749847 16.899902 4.625344 34.996049-3.184529 42.826388-18.980283 2.046612-4.130064 3.694135-8.458649 5.542226-12.687974 47.557132-108.816335 144.744615-189.07117 260.096806-214.806297 26.812669-5.981225 53.974285-9.262968 81.418335-9.138124 91.018993 0.416486 171.948187 29.316699 241.772462 87.812974 60.953234 51.064003 101.472066 115.438149 121.933073 192.3304 5.994528 22.531156 9.8176 45.448098 11.104919 68.744688 6.311753 114.116037-30.858822 211.92876-111.593587 292.586778-51.915393 51.864228-114.663506 84.628446-186.512905 99.714026-30.619368 6.429433-61.642942 8.794293-92.8722 7.259334-131.573641-6.463202-243.570411-79.554894-305.631886-185.273681-23.193235-39.505759-38.500872-81.894172-46.100967-127.053697-1.329275-7.890714-2.190899-15.859199-3.302209-24.034393z"  horiz-adv-x="1024" />

    
    <glyph glyph-name="yun1" unicode="&#59553;" d="M957.772646 466.946131l-43.723827 1.153266c7.125281 57.230446-6.407943 116.89636-42.621727 166.976965-36.162618 50.028417-88.49859 81.604576-145.063886 92.881411l11.969612 42.007742c65.508993-14.097066 125.968993-51.362808 168.104649-109.644189 42.032302-58.153468 58.46046-126.994346 51.335179-193.375195z m-122.868375 141.782143c30.448476-42.134633 41.290405-92.496647 34.369785-140.526547l-42.647309 1.998517c6.458085 38.624692-1.845021 79.503728-26.424836 113.514334-25.065885 34.676777-62.279439 55.565527-101.929484 61.100589l11.226693 41.187051c48.823985-8.021697 94.367251-34.343179 125.405151-77.273944zM379.260813 314.038602h-0.717337v1.076518c0.255827-0.332575 0.434905-0.74292 0.717337-1.076518z m252.247025 0h-0.718361c0.255827 0.333598 0.461511 0.743944 0.718361 1.102101v-1.102101z m91.857081 59.33334c11.251252 2.049682 22.784936 3.279696 34.625611 3.279696 104.799858 0 189.736319-84.11577 189.736319-187.839109 0-33.062-8.970302-63.895239-24.11728-90.831728h-79.015612c24.425296 22.809495 39.879266 54.949496 39.879266 90.831728 0 69.14787-56.641021 125.226073-126.481669 125.226073h-94.855368v93.906763c0 86.449931-70.789253 156.520823-158.110018 156.520823-87.319741 0-158.108994-70.070892-158.108994-156.520823v-93.907786h-94.880951c-69.840648 0-126.45711-56.07718-126.45711-125.226073s56.615439-125.201513 126.45711-125.201514h504.263806v-62.613036H220.433458v2.819209c-89.703021 14.916734-158.108994 91.959412-158.108994 184.995341 0 103.72334 84.936461 187.839109 189.736319 187.839109 11.840676 0 23.399943-1.230014 34.626635-3.279696-1.794879 11.276834-2.99931 22.783913-2.999311 34.573423 0 121.023354 99.084693 219.108277 221.338061 219.108276 122.254392 0 221.338061-98.084922 221.338061-219.108276-0.001023-11.787464-1.205455-23.295566-2.99931-34.5724z"  horiz-adv-x="1024" />

    
    <glyph glyph-name="Proxychengxubanben" unicode="&#59554;" d="M514.042519 770.502751c117.705795 0 272.541233 0.065492 390.247029-0.028652 61.560054-0.045025 56.243979-1.280156 56.344262-62.767556 0.320295-194.465017 0.360204-455.775464-0.019443-650.236388-0.119727-62.508659-0.842181-54.579059-63.780628-54.594409-236.256842-0.055259-531.931958-0.055259-768.190847 0.005117-62.679551 0.01535-63.34163-7.498788-63.428611 54.968939-0.267083 194.46604-0.267083 455.772394 0 650.236388 0.086981 62.437028-6.64535 62.348 56.030107 62.392002 118.554116 0.084934 274.244015 0.024559 392.798131 0.024559zM130.401955 464.71737c-0.867764-4.335748-1.125637-8.351202-1.128706-12.364609-0.140193-120.188336 0.225127-240.377696-0.447185-360.561939-0.138146-24.356734 14.31503-25.031093 31.784914-25.025977 234.412844 0.095167 468.818525 0.014326 703.231369 0.114611 30.254048 0.010233 32.890085 2.978844 32.899294 34.18252 0.051165 112.517633 0.019443 225.034243 0.019443 337.552899v26.100448c-255.831666 0.002047-510.014786 0.002047-766.359129 0.002047z m-1.254573 69.904093H894.445342c1.075495 3.668553 1.939165 5.255701 1.944282 6.844895 0.179079 42.611493 0.319272 92.654236 0.355087 135.26573 0.030699 36.282345 5.40408 29.740348-30.934546 29.745464-230.976582 0.040932-468.143143 0.019443-699.122795 0.014327-5.110391 0-20.12741-0.055259-25.239847-0.144287-14.186094-0.254803-12.397355-6.463202-12.351306-21.671578 0.144286-49.316196 0.051165-98.635461 0.051165-150.054551zM295.537993 242.569874c21.745257-10.340509 39.23663-18.391882 56.479339-26.945699 14.999622-7.437389 22.37766-19.832697 15.232936-35.617196-7.42511-16.403598-21.379936-20.8734-38.31463-13.136181-37.927821 17.314341-76.269058 33.819247-113.452935 52.595892-8.359388 4.224208-17.921161 16.714683-17.495466 24.902156 0.506537 9.636474 9.199523 23.181979 17.971303 27.28646 37.714973 17.664312 76.55456 33.014928 115.424846 48.079018 16.115026 6.248308 31.344892 2.133593 38.32691-14.981203 7.024997-17.207917-1.403976-30.043247-17.07898-37.521568-17.379832-8.29185-35.350113-15.33936-57.093323-24.661679zM746.619552 244.435361c-22.797215 9.541307-40.156582 16.369829-57.119929 24.052812-15.170514 6.871501-22.447245 19.23304-16.594956 35.252899 6.257517 17.135262 20.558222 23.052019 37.257555 16.463973 40.247656-15.868409 80.538291-31.823799 119.755478-50.01716 21.423939-9.937326 22.196535-35.43914 1.059122-46.410006-39.880289-20.693298-80.807421-39.711444-122.608456-56.090483-8.203846-3.219321-28.221762 5.947456-31.994691 14.280238-3.65832 8.076956 3.243881 26.865881 11.462052 33.109072 15.694447 11.929704 35.617196 18.291598 58.783825 29.358655zM578.066695 362.101247c-2.675946-11.596106-3.449565-16.695241-5.028527-21.522176-18.294668-55.796794-36.722366-111.553679-55.081503-167.325913-6.148024-18.668175-16.234753-34.429137-38.446637-27.0204-22.140253 7.382131-20.543895 25.355481-14.207583 44.359301 18.826787 56.475246 36.848233 113.217574 55.280024 169.82278 5.387707 16.545838 16.499789 28.120454 34.098609 22.312168 9.989515-3.296069 17.231453-14.911618 23.385617-20.62576zM250.300696 582.062961c-22.313192 0.205685-40.129976 18.946514-39.242769 41.270963 0.832971 20.930705 19.204387 38.757722 39.814797 38.636972 21.617343-0.119727 40.034808-19.706831 39.265282-41.754986-0.74906-21.370727-18.470677-38.3484-39.83731-38.152949zM364.856755 582.082404c-22.287609 0.565888-39.699164 19.541055-38.539758 42.005696 1.075495 20.800745 20.083407 38.573527 40.531112 37.888936 21.74321-0.724501 39.743166-20.556175 38.543851-42.465161-1.166569-21.233604-19.285229-37.963637-40.535205-37.429471zM520.43102 620.434897c-0.636496-21.369703-18.259876-38.436404-39.622416-38.365796-22.352077 0.073678-40.228213 18.671245-39.456641 41.050952 0.720408 20.925588 18.969027 38.83754 39.599904 38.858006 21.614274 0.023536 40.126906-19.458167 39.479153-41.543162z"  horiz-adv-x="1024" />

    
    <glyph glyph-name="yulan" unicode="&#58916;" d="M949.149245 714.09402C949.071474 779.048381 896.435673 831.685205 831.481312 831.762977L189.774181 831.762977C124.820843 831.685205 72.184019 779.048381 72.106248 714.09402l0-658.634662c0.076748-64.954361 52.713572-117.591185 117.667933-117.668956l547.347043 0c17.773805 0 32.17991 14.407128 32.17991 32.180933s-14.407128 32.180933-32.17991 32.180933L189.774181 2.152269c-29.443589 0.030699-53.30402 23.892153-53.334719 53.334719L136.439462 714.09402c0 29.410843 23.924899 53.335742 53.334719 53.335742L831.481312 767.429763c29.40982 0 53.334719-23.924899 53.334719-53.335742l0-561.506531c0.5137-17.395182 14.763239-31.231305 32.166607-31.231305 17.404392 0 31.653931 13.836123 32.16763 31.231305L949.150268 714.09402 949.149245 714.09402zM708.971094 236.649024c36.118616 45.474704 55.70572 101.876272 55.546084 159.949922 0.188288 68.458161-27.018354 134.144186-75.553767 182.421726-48.278563 48.53439-113.964588 75.738985-182.421726 75.553767-68.456115 0.188288-134.144186-27.01733-182.420703-75.553767-48.53439-48.278563-75.740008-113.964588-75.553767-182.421726 0-68.920696 26.835182-133.702118 75.553767-182.420703 48.278563-48.53439 113.964588-75.740008 182.420703-75.553767 56.611346-0.147356 111.676475 18.460444 156.593478 52.916187l173.158758-173.158758c6.027274-6.045693 14.213723-9.444093 22.750143-9.444093 8.537444 0 16.721847 3.3984 22.74912 9.444093 12.562107 12.5662 12.562107 32.934087 0 45.500287L708.971094 236.649024 708.971094 236.649024zM312.871777 396.598946c0 106.783025 86.85823 193.670931 193.642279 193.670931 106.782002 0 193.669908-86.886883 193.669908-193.670931 0-106.782002-86.886883-193.669908-193.669908-193.669908C399.73103 202.929038 312.871777 289.816944 312.871777 396.598946L312.871777 396.598946z"  horiz-adv-x="1024" />

    
    <glyph glyph-name="yu" unicode="&#58915;" d="M916.89054 216.959589l-63.615876 0L853.274664 385.372254c0 22.716374-18.575054 41.291428-41.292452 41.291428l-273.263687 0L538.718525 553.840176l71.357188 0c22.716374 0 41.292452 18.575054 41.292452 41.292452L651.368164 778.652362c-0.057305 22.660092-18.576077 41.235147-41.34771 41.235147L411.250388 819.887508c-22.771633 0-41.292452-18.575054-41.292452-41.292452l0-183.519734c0-22.716374 18.576077-41.291428 41.292452-41.291428l71.180156 0 0-127.121236L209.109552 426.662659c-22.716374 0-41.291428-18.575054-41.291428-41.291428l0-168.412664-63.615876 0c-22.716374 0-41.23617-18.519796-41.23617-41.292452l0-183.51871c0-22.716374 18.519796-41.291428 41.23617-41.291428L287.778262-49.144024c22.715351 0 41.235147 18.576077 41.235147 41.291428L329.013409 175.667138c0 22.716374-18.519796 41.292452-41.235147 41.292452l-63.6169 0L224.161363 370.321466l258.213923 0 0-153.361877-63.560618 0c-22.715351 0-41.292452-18.576077-41.292452-41.292452l0-183.51871c0-22.716374 18.576077-41.291428 41.292452-41.291428l183.519734 0c22.715351 0 41.292452 18.576077 41.292452 41.291428L643.626853 175.667138c0 22.716374-18.576077 41.292452-41.292452 41.292452l-63.615876 0L538.718525 370.321466l258.213923 0 0-153.361877-63.561641 0c-22.716374 0-41.291428-18.576077-41.291428-41.292452l0-183.51871c0-22.716374 18.575054-41.291428 41.291428-41.291428l183.519734 0c22.717398 0 41.292452 18.576077 41.292452 41.291428L958.182992 175.667138C958.181969 198.439794 939.606915 216.959589 916.89054 216.959589L916.89054 216.959589zM426.301176 610.182392l0 153.3629 168.666444 0 0-153.3629L426.301176 610.182392 426.301176 610.182392zM433.865455 7.255497 433.865455 160.61635l153.361877 0L587.227332 7.255497 433.865455 7.255497 433.865455 7.255497zM901.839753 160.61635 901.839753 7.255497l-153.3629 0L748.476853 160.61635 901.839753 160.61635 901.839753 160.61635zM119.253034 7.255497 119.253034 160.61635l153.418158 0L272.671193 7.255497 119.253034 7.255497 119.253034 7.255497z"  horiz-adv-x="1024" />

    
    <glyph glyph-name="pifu" unicode="&#58917;" d="M943.214069 709.976236c-0.032746 0 0.124843 0.062422 0.094144 0.094144L679.562297 812.538123c-1.526773 0.373507-2.960425 0.964978-4.613064 0.964978-8.04114 0-14.926968-4.675486-18.169825-11.404748l-4.767584-8.789177c-26.831089-49.488111-79.345116-79.033008-140.427286-79.033008-61.08217 0-113.594151 29.544897-140.427286 79.033008l-5.266957 9.692756c-3.427052 6.139837-9.785877 10.502192-17.358343 10.502192-1.901303 0-3.553942-0.624217-5.297656-1.121544L79.985706 710.100056c0 0 0.186242-0.124843 0.156566-0.124843-9.03784-4.175089-15.302521-13.337773-15.302521-23.965831 0-0.031722-0.031722-0.062422-0.031722-0.094144l0-268.5135c0.841158-13.867846 12.091386-24.90011 26.115797-24.90011 3.64604 0 7.137561 0.748037 10.31595 2.088568 0.062422 0.031722 0.031722-0.062422 0.062422-0.062422l133.978411 48.987714 0-459.504392c0-14.615882 11.842723-26.426883 26.426883-26.426883l500.843916 0c14.585183 0 26.426883 11.811 26.426883 26.426883L788.978289 443.768245l132.980687-49.272193c0.094144-0.031722 0.031722 0.12382 0.124843 0.095167 3.178389-1.340531 6.66991-2.088568 10.314926-2.088568 13.774725 0 24.713868 10.626012 25.961278 24.121374L958.360024 687.068504C957.953771 697.227887 951.939801 705.955666 943.214069 709.976236L943.214069 709.976236zM923.985122 437.540404l-145.462976 55.555294c-2.213411 0.727571-4.556783 1.254573-7.003508 1.254573-12.682857 0-22.988574-10.270924-23.186072-22.922059l0-471.749274L274.834462-0.321062 274.834462 475.755774c-1.783623 11.063987-10.964726 19.685341-22.525016 19.685341-2.345418 0-4.526083-0.527003-6.670933-1.188058l-146.455583-55.6873L99.18293 677.564036l237.661841 87.396489c43.169195-59.187007 95.53689-91.520413 174.739766-91.520413s133.753283 30.151717 176.921455 89.338724l235.480152-85.2148L923.986145 480.084359 923.986145 437.540404z"  horiz-adv-x="1024" />

    
    <glyph glyph-name="liebiao" unicode="&#59561;" d="M252.031 569.272c-21.936 0-36.555-14.623-36.555-36.557 0-21.931 14.619-36.551 36.555-36.551 21.933 0 36.554 14.621 36.554 36.551 0 21.935-14.621 36.557-36.554 36.557v0zM252.031 276.836c-21.936 0-36.555-14.628-36.555-36.555 0-21.936 14.619-36.554 36.555-36.554 21.933 0 36.554 14.618 36.554 36.554 0 21.927-14.621 36.555-36.554 36.555v0zM252.031 423.056c-21.936 0-36.555-14.623-36.555-36.556s14.619-36.558 36.555-36.558c21.933 0 36.554 14.627 36.554 36.558 0 21.934-14.621 36.556-36.554 36.556v0zM682.791 423.056h-197.814c-21.935 0-36.557-14.623-36.557-36.556s14.623-36.558 36.557-36.558h292.439c21.926 0 36.551 14.627 36.551 36.558 0 21.933-14.625 36.556-36.551 36.556h-94.625zM682.791 276.836h-197.814c-21.935 0-36.557-14.628-36.557-36.555 0-21.936 14.623-36.554 36.557-36.554h292.439c21.926 0 36.551 14.618 36.551 36.554 0 21.927-14.625 36.555-36.551 36.555h-94.625zM682.791 569.272h-197.814c-21.935 0-36.557-14.621-36.557-36.557 0-21.931 14.623-36.551 36.557-36.551h292.439c21.926 0 36.551 14.621 36.551 36.551 0 21.937-14.625 36.557-36.551 36.557l-94.625-0zM922.183 558.809c-22.524 53.254-54.763 101.075-95.825 142.135-41.062 41.063-88.883 73.304-142.136 95.826-55.145 23.325-113.711 35.153-174.072 35.153-60.36 0-118.926-11.827-174.071-35.154-53.254-22.523-101.075-54.763-142.136-95.825-41.061-41.062-73.301-88.884-95.825-142.136-23.323-55.145-35.151-113.711-35.151-174.072 0-60.36 11.826-118.927 35.151-174.072 22.525-53.254 54.764-101.075 95.826-142.136 41.063-41.061 88.884-73.3 142.136-95.825 55.144-23.323 113.711-35.151 174.070-35.151 60.361 0 118.927 11.827 174.073 35.152 53.254 22.525 101.074 54.763 142.135 95.825 41.064 41.061 73.304 88.883 95.826 142.136 23.325 55.145 35.153 113.712 35.153 174.072s-11.83 118.926-35.154 174.072v0zM510.149-8.476c-216.819 0-393.214 176.394-393.214 393.213 0 216.82 176.394 393.217 393.214 393.217 216.82 0 393.215-176.396 393.215-393.217 0-216.818-176.394-393.213-393.215-393.213v0z"  horiz-adv-x="1024" />

    
    <glyph glyph-name="daima" unicode="&#59565;" d="M63.109 831.532v-896.416h896.416v896.416h-896.416zM908.184-13.543h-793.734v793.734h793.733v-793.734h0.001zM346.738 248.544c8.988-8.988 29.96-8.988 41.945 0 11.985 11.985 8.988 29.961 0 38.95l-101.867 101.866 101.867 101.866c8.988 8.988 8.988 26.965 0 38.95-11.985 8.988-32.957 8.988-41.945 0l-122.84-122.84c-8.988-8.988-11.984-23.968 0-35.953l122.84-122.84zM745.218 386.364l-101.868-101.866c-8.988-8.988-8.988-26.964 0-38.949 8.989-8.988 29.961-11.984 41.945 0l119.843 119.842c11.985 11.985 8.988 29.96 0 35.954l-122.839 122.839c-5.992 14.981-23.969 14.981-35.954 2.996-11.984-11.985-8.988-29.96 0-38.949l98.872-101.867zM457.593 245.549c14.981-5.992 32.957 2.995 38.949 17.976l89.883 233.694c5.991 14.98-2.996 32.957-17.976 38.949-14.981 5.991-32.957-2.996-38.95-17.976l-89.882-233.694c-5.992-14.981 2.996-32.958 17.976-38.949z"  horiz-adv-x="1024" />

    
    <glyph glyph-name="chenggong" unicode="&#59492;" d="M940.747901 597.189474L450.370361 89.891566c-11.584849-11.979846-27.583219-19.393699-45.254693-19.3937s-33.670867 7.41283-45.255717 19.3937L82.734306 376.644475c-11.579733 11.919471-18.744923 28.470425-18.744923 46.75179 0 36.561707 28.652574 66.149583 63.938218 66.149583 17.670451 0 33.675984-7.41283 45.254693-19.393699l231.93542-239.881393 445.184245 460.548165c11.585873 11.919471 27.583219 19.331277 45.255717 19.331277 35.278481 0 63.938218-29.642111 63.938218-66.144466 0.00307-18.280342-7.163143-34.836413-18.747993-46.816258z"  horiz-adv-x="1024" />

    
    <glyph glyph-name="automation" unicode="&#59599;" d="M958.694645 380.205581c-1.99647-176.424128-139.916657-319.830259-313.981041-331.032392-7.242961-0.467651-14.43885-1.103124-21.796422-1.103125H286.946314c-7.15291 0-14.211676 0.413416-21.197788 1.072425C152.001903 59.831946 62.966077 155.506982 62.966077 272.053372c0 123.700323 100.278891 223.979214 223.979214 223.979214 0.275269 0 0.537236-0.038886 0.810459-0.040932 6.123464-0.022513 12.19474-0.25992 18.216897-0.781806 0.163729 0.467651 5.78782 15.629979 8.810666 22.588461 38.693254 90.24742 114.918309 158.354588 208.217229 187.107445-46.966685-14.612813 47.441499 14.997576 99.372241 15.07944 0.181125 0 0.357134 0.027629 0.542353 0.027629 185.27675 0 335.483774-149.983943 335.928912-335.156316 0.002047-0.277316 0.042979-0.543376 0.042979-0.819668 0-1.292436-0.180102-2.541893-0.192382-3.831258zM622.916159 664.018531c-135.445832 0-248.406556-96.190783-274.353508-223.979214h-61.616337c-92.77601 0-167.985946-75.210959-167.985945-167.985945 0-92.77601 75.208912-167.985946 167.985945-167.985946h335.969845c154.627706 0 279.975553 125.349893 279.975552 279.97453 0 154.62566-125.347846 279.976576-279.975552 279.976575zM810.111608 226.725h-56.895824l-40.676422 102.722547H546.488489l-38.36068-102.722547h-56.895824l151.893432 375.275036h55.092759l151.893432-375.275036zM696.576809 371.842099l-60.241013 156.02145c-1.89107 5.004991-3.949962 13.725606-6.178722 26.164916h-1.28732c-1.889023-11.305487-4.033873-20.029172-6.435572-26.164916l-59.72629-156.02145h133.868917zM385.919467 283.006841l-0.132007-0.014326c-0.470721 4.623297-4.13825 8.290827-8.747221 8.747221h-5.389754v0.073679a14.687514 14.687514 0 0 0-13.179161 8.187472c-0.574075 1.193175-1.016143 2.459005-1.251503 3.813863a93.063559 93.063559 0 0 1-3.696182 8.835225l-0.014326 0.014327a14.162558 14.162558 0 0 0-1.663896 3.299139v0.014326a14.668071 14.668071 0 0 0-0.839111 4.903683 14.561647 14.561647 0 0 0 4.315282 10.396791h-0.014326l2.9901 2.989078c0.044002 0.029676 0.072655 0.059352 0.117681 0.103354 0.029676 0.044002 0.073678 0.073678 0.103354 0.11768 3.490497 3.592828 3.666506 9.188266 0.559748 13.003152l0.058328 0.045025a114.774023 114.774023 0 0 1-7.215332 7.892761 112.255667 112.255667 0 0 1-8.084119 7.377014l-0.030699-0.028652c-3.445472 2.827395-8.393157 2.915399-11.957333 0.309038l-2.149966-2.149966-2.031263-2.00261-0.088004 0.088004c-4.285606-4.299933-10.573823-5.389754-15.875572-3.254114a14.509459 14.509459 0 0 0-2.090615 1.03047 95.557356 95.557356 0 0 1-10.470469 4.314259 14.799054 14.799054 0 0 0-1.870604 0.633426l-0.013303 0.014326a14.352893 14.352893 0 0 0-4.845355 3.210112c-2.399653 2.400676-3.78521 5.433756-4.196578 8.555863a13.947663 13.947663 0 0 0 0 3.681856v2.533706c0 4.830005-3.490497 8.835226-8.085143 9.66001a64.272839 64.272839 0 0 1-1.722224 0.147357h0.014326c-3.239787 0.249687-6.508227 0.397043-9.807366 0.397042-3.298116 0-6.567579-0.147356-9.806344-0.412392-0.575098-0.044002-1.149173-0.088004-1.723247-0.147356-4.594645-0.810459-8.085142-4.830005-8.085142-9.644661v-4.373611a14.699794 14.699794 0 0 0-9.556657-13.782911 9.54233 9.54233 0 0 0-1.089821-0.36839 89.013313 89.013313 0 0 1-11.384282-4.726652l-0.044002-0.015349c-0.293689-0.161682-0.574075-0.293689-0.883113-0.442068a14.672164 14.672164 0 0 0-6.125511-1.325182 14.623046 14.623046 0 0 0-10.396791 4.314259l-0.015349-0.029676-3.106758 3.092431a9.782807 9.782807 0 0 1-12.502755 1.133824c-0.442068-0.353041-0.883113-0.721431-1.295506-1.074472l-0.045025-0.044002a120.103402 120.103402 0 0 1-7.245008-6.656607 117.408013 117.408013 0 0 1-6.625908-7.201005l-0.015349-0.01535c-0.381693-0.442068-0.750083-0.883113-1.118474-1.340531a9.782807 9.782807 0 0 1 1.118474-12.531408l3.092431-3.092431c4.447289-4.461615 5.448082-11.059893 2.990101-16.4783a9.127891 9.127891 0 0 0-0.500397-1.000793 91.012853 91.012853 0 0 1-4.697999-11.339256c-0.11768-0.426719-0.265036-0.824785-0.426719-1.221828v-0.014326a14.232143 14.232143 0 0 0-3.327791-5.110391 14.652721 14.652721 0 0 0-10.396791-4.314259v-0.045026h-4.372588a9.809413 9.809413 0 0 1-9.661034-8.068769 58.942437 58.942437 0 0 1-0.161682-1.723248 120.243595 120.243595 0 0 1-0.398066-9.807366v-0.146333c0-3.26844 0.132006-6.479575 0.398066-9.645684v-0.014327c0.044002-0.574075 0.103354-1.14815 0.161682-1.723247 0.824785-4.594645 4.815679-8.084119 9.631358-8.084119h4.403287c6.258541 0 11.604292-3.917216 13.724583-9.438977v-0.014326c0.147356-0.36839 0.265036-0.73678 0.354064-1.104147l0.044002-0.073678a90.800006 90.800006 0 0 1 4.712325-11.383259l0.044002-0.058328c0.162706-0.279363 0.294712-0.574075 0.442068-0.883113a14.715143 14.715143 0 0 0 1.340531-6.125511c0-4.064572-1.64957-7.746428-4.315282-10.396791l0.014326-0.014326L178.775686 210.044086c-0.044002-0.029676-0.073678-0.073678-0.11768-0.103354a0.665149 0.665149 0 0 1-0.103354-0.11768c-3.269463-3.371794-3.63683-8.511861-1.104147-12.281721 0.426719-0.515746 0.854461-1.030469 1.281179-1.530866a115.993804 115.993804 0 0 1 6.581905-7.142677 116.469642 116.469642 0 0 1 8.659217-7.848759c3.402493-2.297322 7.922437-2.209318 11.250229 0.220011l2.149966 2.149966 2.016937 2.01796 0.089027-0.073678c4.461615 4.447289 11.073196 5.448082 16.506953 2.974751 0.280386-0.11768 0.559748-0.265036 0.824784-0.398066 0 0 0.044002-0.014326 0.073678-0.044002a91.562369 91.562369 0 0 1 11.485589-4.771677c0.338714-0.103354 0.677429-0.220011 1.001817-0.338714a14.927991 14.927991 0 0 0 5.300726-3.387144 14.649652 14.649652 0 0 0 4.315282-10.396791h0.044002v-4.329608c0-5.065366 3.843538-9.247618 8.791224-9.748015v-0.058329c3.549849-0.338714 7.142677-0.500397 10.793834-0.500396 3.653203 0 7.245008 0.161682 10.809183 0.500396l-0.014326 0.058329c4.933359 0.500397 8.806573 4.682649 8.806573 9.748015v4.37361c0 5.9055 3.475148 10.985192 8.481162 13.32754a14.193257 14.193257 0 0 0 3.211135 1.074472 88.053452 88.053452 0 0 1 9.4093 3.917216 13.681604 13.681604 0 0 0 2.828418 1.413186 14.494109 14.494109 0 0 0 5.15337 0.942465c3.725858 0 7.142677-1.39886 9.748015-3.710508 0.443092-0.382717 0.868787-0.795109 1.266853-1.251504l2.504031-2.518356 0.014326 0.014326c3.446495-3.445472 8.849552-3.784186 12.678764-1.016143 0 0 0.029676 0.014326 0.044002 0.044002 0.323365 0.265036 0.632403 0.515746 0.942465 0.780783a120.331599 120.331599 0 0 1 7.421016 6.818289 115.957988 115.957988 0 0 1 6.81829 7.42204l0.839111 1.016143c2.695389 3.696182 2.460028 8.835226-0.662079 12.296047l-0.014327 0.014326-0.707104 0.691755-2.739391 2.739391v0.014326c-4.38896 4.387937-5.41943 10.853186-3.106758 16.213264 0.221034 0.500397 0.456395 1.000793 0.736781 1.472537a94.523817 94.523817 0 0 1 4.550643 10.970866c0.147356 0.500397 0.294712 1.000793 0.500396 1.472538a14.416338 14.416338 0 0 0 3.299139 5.035689 14.671141 14.671141 0 0 0 10.395768 4.299933v0.01535h4.226255v0.058328c5.242398 0 9.528004 4.122901 9.778714 9.29162l0.147356-0.015349c0.294712 3.402493 0.443092 6.832615 0.443091 10.279111a122.562407 122.562407 0 0 1-0.507559 10.867511z m-117.305683-83.020832c-39.848567 0-72.15332 32.304753-72.15332 72.153321 0 39.84959 32.304753 72.15332 72.15332 72.15332 39.84959 0 72.15332-32.304753 72.15332-72.15332s-32.30373-72.15332-72.15332-72.153321z"  horiz-adv-x="1024" />

    
    <glyph glyph-name="weizhi" unicode="&#59626;" d="M511.389086 831.923636c-246.958578 0-449.015503-202.056925-449.015503-449.015504 0-246.959601 202.056925-449.01755 449.015503-449.01755 246.959601 0 449.016527 202.057949 449.016527 449.01755 0 246.958578-202.056925 449.015503-449.016527 449.015504z m0-808.228725c-197.566658 0-359.212198 161.644517-359.212198 359.213221 0 197.566658 161.64554 359.212198 359.212198 359.212198 197.568704 0 359.213221-161.64554 359.213222-359.212198 0-197.567681-161.644517-359.213221-359.213222-359.213221zM525.007245 637.004271c41.914622 0 74.818009-11.526521 98.656951-34.579563 23.943318-23.053042 35.889395-55.955406 35.889395-98.708116 0-20.119223-4.820796-38.771025-14.46034-55.956429-9.640568-17.185404-24.520463-35.837206-44.639687-55.95643a501.519298 501.519298 0 0 1-28.920679-29.864168 129.717364 129.717364 0 0 1-16.032139-22.005177c-3.563152-6.495948-5.868661-12.888542-6.916526-19.175734s-1.571798-13.412474-1.571798-21.375844c0-26.825972-11.316743-40.238446-33.95023-40.238446-8.80248 0-15.717983 0.62831-20.748557 1.833765a21.639856 21.639856 0 0 0-11.630898 6.653537 24.731264 24.731264 0 0 0-5.343705 12.574386 123.017778 123.017778 0 0 0-1.257643 19.123547c0 42.753733 21.795399 85.506443 65.386196 128.259152 10.060123 9.692756 18.23327 17.761526 24.520463 24.258497 6.287193 6.495948 11.212366 12.574387 14.774495 18.232246a48.461735 48.461735 0 0 1 6.916527 16.975627c1.100054 5.658883 1.571798 12.470009 1.571798 20.433378 0 18.86158-5.658883 33.32192-16.975627 43.382043-11.316743 10.0591-27.034726 15.08865-47.153949 15.08865s-36.255739-5.763261-48.411593-17.289782c-12.154831-11.526521-18.651802-25.462928-19.48989-41.809221-1.257643-24.730241-13.412474-37.09485-36.465516-37.09485-24.310685 0-36.46654 11.946077-36.46654 35.837206 0 34.369785 13.413498 64.967664 40.238446 91.792613 26.406416 26.406416 60.566424 39.609113 102.481046 39.609113z m-14.298657-406.78775a39.525202 39.525202 0 0 0 16.727986-3.495614 46.603411 46.603411 0 0 0 23.218818-23.218817 40.111556 40.111556 0 0 0 3.495614-16.687055 40.006156 40.006156 0 0 0-3.495614-16.727986 46.106084 46.106084 0 0 0-23.218818-23.260773c-5.201465-2.330068-10.736529-3.495614-16.727986-3.495614s-11.567453 1.165546-16.727987 3.495614a47.02706 47.02706 0 0 0-23.219841 23.260773 40.152489 40.152489 0 0 0-3.49459 16.727986c0 5.992481 1.164522 11.526521 3.49459 16.687055a46.605457 46.605457 0 0 0 23.219841 23.218817 40.172955 40.172955 0 0 0 16.727987 3.495614z"  horiz-adv-x="1024" />

    
    <glyph glyph-name="yunweichangjing" unicode="&#59630;" d="M959.382307 209.620437V806.646949H64.618717v-597.026512h155.346067L364.467899 402.343787l99.088786-135.393643L602.915639 443.45716c22.354124-21.580504 52.651151-35.001165 86.176708-35.001165 68.635193 0 124.272351 55.641251 124.272352 124.272351 0 68.63417-55.637158 124.272351-124.272352 124.272352-68.63417 0-124.272351-55.638181-124.272351-124.272352 0-16.243963 3.328815-31.66314 8.995885-45.886073L467.245703 351.126288l-100.048647 150.049435-184.516433-241.84614H114.327862V756.938827H909.672138v-497.610268H515.109828v-248.02691h-149.126413v-49.189305h149.127436v0.305968h49.709145v-0.305968h151.198607v49.189305H564.818973V209.620437h394.563334zM689.091324 607.292576c41.113373 0 74.563206-33.450856 74.563206-74.563207s-33.450856-74.563206-74.563206-74.563206c-41.113373 0-74.563206 33.450856-74.563206 74.563206s33.44881 74.563206 74.563206 74.563207z"  horiz-adv-x="1024" />

    
    <glyph glyph-name="shouquanguanli" unicode="&#59631;" d="M693.816952 547.982772l-233.805-233.805001L346.106716 428.083008c-11.990079 11.990079-32.972972 11.990079-44.962028 0-11.990079-11.990079-11.990079-32.972972 0-44.962028L436.031794 245.235586c5.994528-5.994528 14.987343-8.992815 23.980158-8.992815s17.984606 2.997264 23.980157 8.992815l257.785158 254.787894c11.990079 11.990079 11.990079 32.971949 0 44.962028-11.990079 14.987343-32.972972 14.987343-47.960315 2.997264zM876.664374 712.844563L522.959609 832.745351c-5.994528 2.997264-14.987343 2.997264-20.982893 0l-356.702028-119.900788c-14.987343-5.994528-23.980157-17.984606-23.980158-32.972972v-377.684922c8.992815-221.814921 362.697579-356.702028 377.684922-362.697579 2.997264 0 8.992815-2.997264 11.990079-2.997263 2.997264 0 8.992815 0 11.990078 2.997263 14.987343 5.994528 365.694843 140.882658 377.684922 365.694843V679.872614c0 14.987343-8.992815 26.977421-23.980157 32.971949zM510.969531 5.435035C412.05266 44.402535 193.235003 164.302299 187.239452 305.184957v350.7075l323.730079 113.905236 323.730079-113.905236v-350.7075c-8.992815-158.867264-266.776949-275.769764-323.730079-299.749922z"  horiz-adv-x="1024" />

    
    <glyph glyph-name="luojiguanli" unicode="&#59632;" d="M250.724345 726.316389h521.632381c14.732539 0 26.676569 11.94403 26.676569 26.67657s-11.943007 26.676569-26.676569 26.676569H250.724345c-14.732539 0-26.676569-11.94403-26.676569-26.676569 0-14.733563 11.943007-26.676569 26.676569-26.67657zM123.720789 594.05611h775.640516c15.391549 0 27.868721 12.478196 27.868721 27.869744 0 15.392572-12.477172 27.871791-27.868721 27.871791H123.720789c-15.392572 0-27.870768-12.478196-27.870767-27.871791 0-15.392572 12.478196-27.869744 27.870767-27.869744z m798.98827-63.62304H100.372012c-20.093641 0-36.381605-16.287965-36.381605-36.381605v-460.764082c0-20.093641 16.287965-36.381605 36.381605-36.381605H922.709059c20.092617 0 36.381605 16.287965 36.381606 36.381605v460.764082c-0.001023 20.093641-16.288988 36.381605-36.381606 36.381605z m-16.971533-480.175177h-788.396028V477.080955h788.395005v-426.823062h0.001023zM478.916511 156.96417c58.932204 0 106.706277 47.77305 106.706277 106.704231 0 58.933227-47.774073 106.706277-106.706277 106.706277-58.933227 0-106.706277-47.77305-106.706278-106.706277 0-58.931181 47.77305-106.704231 106.706278-106.704231z m0 160.058393c29.41903 0 53.354162-23.934109 53.354161-53.354162 0-29.41903-23.934109-53.352115-53.354161-53.352115-29.420053 0-53.354162 23.934109-53.354162 53.352115s23.934109 53.354162 53.354162 53.354162z m266.762623-160.058393c58.933227 0 106.706277 47.77305 106.706277 106.704231 0 58.933227-47.77305 106.706277-106.706277 106.706277-58.932204 0-106.704231-47.77305-106.704231-106.706277 0-58.931181 47.772027-106.704231 106.704231-106.704231z m0 160.058393c29.41903 0 53.352115-23.934109 53.352115-53.354162 0-29.41903-23.934109-53.352115-53.352115-53.352115s-53.352115 23.934109-53.352116 53.352115 23.933085 53.354162 53.352116 53.354162zM238.827387 156.96417c14.732539 0 26.676569 11.94403 26.676569 26.67657V343.698109c0 14.732539-11.943007 26.676569-26.676569 26.676569s-26.677593-11.94403-26.677593-26.676569v-160.058393c0-14.731516 11.94403-26.675546 26.677593-26.675546z"  horiz-adv-x="1024" />

    
    <glyph glyph-name="xitongpeizhi" unicode="&#59633;" d="M366.259708 202.764286H117.089765V732.800058h744.635361v-196.092074l47.062876-27.094078V780.844284H63.989383v-628.859522h302.270325v50.779524zM366.259708 202.764286H117.089765V732.800058h744.635361v-196.092074l47.061852-27.094078V780.844284H63.989383v-628.859522h302.270325v50.779524zM255.727289 49.23868v-54.380538h199.795419l-56.855916 54.380538H255.727289zM768.418021-3.927193h-0.004094c-9.921977 0.004093-19.568684 4.105504-25.797549 10.980075-8.489348 9.304923-35.380812 33.505092-57.394175 33.505092-21.861914 0-49.170886-24.340361-57.014528-32.863479-6.214539-6.757914-15.793708-10.791787-25.620517-10.791787-4.682649 0-9.097192 0.895393-13.132089 2.669806l-0.707104 0.306992-66.910923 37.418214-0.667195 0.464581c-12.178367 8.528234-16.814967 25.206078-10.778484 38.796608 0.047072 0.102331 6.17156 14.237259 6.171559 27.124777 0 39.108716-31.82073 70.930469-70.929445 70.93047h-2.372024c-0.146333-0.005117-0.291642-0.00921-0.429789-0.00921-11.205203 0-20.324908 9.952676-23.243377 25.355481-0.231267 1.235131-5.705955 30.446429-5.705955 53.460586 0 23.019273 5.473665 52.233642 5.705955 53.468772 2.952238 15.59621 12.270465 25.615401 23.674189 25.348318h2.371001c39.108716 0 70.927399 31.81766 70.927399 70.928422 0 12.883425-6.121418 27.015284-6.18691 27.1565-6.02932 13.577227-1.362021 30.252001 10.871606 38.752606l0.692778 0.480954 70.614267 38.788421 0.734734 0.312108c3.978614 1.694595 8.330736 2.555196 12.945847 2.555196 9.806343 0 19.402909-3.945869 25.676799-10.558473 8.357342-8.748245 34.773991-31.509644 56.156998-31.509645 21.183462 0 47.439452 22.310122 55.770187 30.906917 6.239098 6.476505 15.767102 10.354835 25.473162 10.354836 4.708232 0 9.143241-0.890276 13.186323-2.64627l0.714268-0.312108 68.203358-37.890982 0.673336-0.471745c12.204973-8.515954 16.85283-25.194822 10.81123-38.791491-0.044002-0.102331-6.170536-14.240329-6.170537-27.126824 0-39.105646 31.81766-70.926376 70.926376-70.926376h2.375094c11.385305 0.25378 20.717857-9.748015 23.671119-25.348318 0.231267-1.234107 5.706979-30.445406 5.706978-53.462632 0-23.019273-5.474688-52.232618-5.711071-53.465702-2.948145-15.598256-12.281721-25.580608-23.671119-25.348318h-2.372024c-39.107693 0-70.926376-31.819706-70.926376-70.929446 0-12.882402 6.121418-27.01119 6.183839-27.152407 6.025227-13.56904 1.367137-30.247908-10.841929-38.756699l-0.682545-0.47993-69.356624-38.33305-0.721431-0.313132c-3.966335-1.707898-8.30106-2.577708-12.890588-2.577708z m-8.290827 50.133817c0.285502-0.187265 1.094938-0.503467 1.943258-0.503467l0.096191 0.001024 59.767222 33.032324c-1.441838 3.350304-8.03807 19.618826-8.03807 36.582173 0 50.742684 39.9642 92.326778 90.071411 94.925976 0.719384 3.982708 4.635577 26.384927 4.635577 43.190685 0 16.804734-3.91517 39.195697-4.635577 43.190685-50.107211 2.602268-90.071412 44.186362-90.071411 94.925976 0 16.990976 6.615675 33.277918 8.046256 36.603662l-58.798151 32.665981c-0.067538 0.004093-0.149403 0.010233-0.24764 0.010233-0.99977 0-1.935072-0.366344-2.248203-0.577145-0.988514-1.014096-9.509585-9.656941-21.75242-18.269085-18.122753-12.749372-35.258015-19.215644-50.935066-19.215644-15.827477 0-33.101909 6.593162-51.339272 19.593244-12.319583 8.777921-20.88261 17.587564-21.871124 18.621103-0.312108 0.211824-1.261737 0.589424-2.271739 0.589424a2.537799 2.537799 0 0 1-0.208755-0.007163l-60.902068-33.45188c1.461281-3.393283 8.03193-19.631106 8.03193-36.566823 0-50.738591-39.963177-92.322685-90.070388-94.925977-0.719384-3.984754-4.634554-26.381857-4.634554-43.189661 0-16.802688 3.914146-39.193651 4.637624-43.187615 50.102095-2.602268 90.068342-44.185338 90.068341-94.925976 0-17.025769-6.642281-33.340339-8.057513-36.623106l57.641815-32.233122c0.037862-0.004093 0.080841-0.004093 0.128937-0.004093 0.841158 0 1.639337 0.310062 1.925862 0.493234 1.077541 1.156336 9.685593 10.269901 22.087041 19.358906 18.482957 13.545504 36.048007 20.413935 52.207036 20.413936 16.311501 0 34.010605-6.997368 52.601008-20.804838 12.473079-9.252735 21.120017-18.536168 22.192442-19.712971z m-74.67577 113.116267c-52.083216 0-94.456279 42.374086-94.456279 94.457302 0 52.082192 42.374086 94.456279 94.456279 94.456279 52.083216 0 94.460372-42.374086 94.460372-94.456279 0.001023-52.084239-42.37511-94.457302-94.460372-94.457302z m0 151.946644c-31.697933 0-57.487296-25.78834-57.487296-57.488319 0-31.701003 25.789363-57.489342 57.487296-57.489342 31.702026 0 57.493435 25.78834 57.493435 57.489342 0.001023 31.699979-25.790386 57.488319-57.493435 57.488319z"  horiz-adv-x="1024" />

    
    <glyph glyph-name="dingshizuoye" unicode="&#59634;" d="M511.974417-63.02415c-247.408833 0-447.985034 200.576201-447.985034 447.985035S264.565585 832.946942 511.974417 832.946942s447.985034-200.576201 447.985034-447.985034S759.384273-63.02415 511.974417-63.02415z m0 835.567374c-214.063377 0-387.582339-173.518962-387.582339-387.582339S297.912064-2.620431 511.974417-2.620431s387.582339 173.518962 387.58234 387.582339S726.037794 772.543224 511.974417 772.543224z m290.585192-426.566212c-21.518083 0-38.98285 17.46579-38.98285 38.983873 0 21.518083 17.463744 38.983873 38.98285 38.983872 21.545712 0 38.983873-17.46579 38.983873-38.983872 0-21.518083-17.438161-38.983873-38.983873-38.983873zM689.893596 562.880063c-15.229866 15.204283-15.229866 39.893592 0 55.123459 15.204283 15.228843 39.893592 15.228843 55.123458 0 15.228843-15.229866 15.228843-39.919175 0-55.123459-15.229866-15.229866-39.919175-15.229866-55.123458 0zM511.974417 82.267934c-33.417087 0-60.538795 27.097148-60.538794 60.539818 0 20.60734 10.31595 38.718837 26.031886 49.665143l22.399149 313.565579c0 11.138688 24.214495 11.57564 24.214495 0l22.399149-313.565579c15.715937-10.946306 26.031886-29.057803 26.031887-49.665143 0.001023-33.44267-27.096125-60.539818-60.537772-60.539818z m0 551.634696c-22.98755 0-41.644469 18.655895-41.644469 41.642422 0 22.988574 18.656919 41.644469 41.644469 41.64447 23.014156 0 41.644469-18.655895 41.644469-41.64447 0-22.986527-18.629289-41.642422-41.644469-41.642422z m-232.101195-70.082148c-14.709003 14.685467-14.709003 38.531572 0 53.242621 14.710027 14.709003 38.557154 14.709003 53.242621 0 14.710027-14.710027 14.710027-38.557154 0-53.242621-14.685467-14.710027-38.532595-14.710027-53.242621 0z m-58.482973-216.513172c-20.810978 0-37.653575 16.869203-37.653574 37.653575s16.84362 37.653575 37.653574 37.653574c20.808932 0 37.652552-16.869203 37.652552-37.653574 0-20.783349-16.84362-37.653575-37.652552-37.653575z"  horiz-adv-x="1024" />

    
    <glyph glyph-name="budingguanli" unicode="&#59636;" d="M301.307394 729.225649c0.900509-6.704702 1.300622-13.609972 1.101077-20.515243l-1.101077-36.226062 28.319999-22.51683 214.555587-170.123632 30.321586-24.016997 36.826743 12.008499c29.020964 9.506515 59.34255 14.309914 90.065272 14.309913 32.423457 0 64.346517-5.40408 94.868671-15.911388 17.912975-6.204305 35.126009-14.210653 51.43751-23.717167L678.281117 272.395156l-42.930765-43.131333-12.709463-12.809747-169.623235-170.323177c-17.512862 29.521361-29.721929 62.245669-35.82595 96.169293-8.40646 47.034223-5.003967 95.869465 9.807367 141.20193l12.008498 36.826743-24.016997 30.321586-170.123632 214.556611-22.516829 28.321022-36.226063-1.101078c-1.201361 0-2.501984-0.100284-3.702322-0.100284-5.703909 0-11.407817 0.400113-17.012465 1.201362l135.898133 135.697565z m14.610765 102.57519c-8.505721 0-17.11275-3.201925-23.717167-9.807367L72.64246 602.934315c-15.010879-15.010879-12.609179-40.028669 5.203512-51.637055 31.722492-20.614503 68.149123-30.922267 104.575754-30.922266 2.001587 0 4.003174 0 6.004761 0.100284L358.550119 305.91969c-37.226856-113.983008-16.311501-242.676042 62.745043-339.846128 6.90527-8.40646 16.811898-12.709463 26.719548-12.709463 8.806573 0 17.512862 3.302209 24.317849 10.107195L678.481685 170.42167 901.843846-52.94049c6.404873-6.404873 14.71105-9.506515 23.016203-9.506515 8.306176 0 16.711614 3.201925 23.016203 9.506515 12.709463 12.709463 12.709463 33.42425 0 46.133713L724.414831 216.55436l206.149127 206.950376c14.410198 14.410198 13.009292 38.127366-2.801813 51.037396C861.914438 527.680377 781.656533 554.299641 701.497888 554.299641c-38.027082 0-75.954903-6.004761-112.481817-17.912975L374.460484 706.509275c1.200338 38.327934-9.006118 76.855412-30.622438 110.179378-6.504134 9.907651-17.111726 15.112186-27.919887 15.112186"  horiz-adv-x="1024" />

    
    <glyph glyph-name="guzhangchuli" unicode="&#59637;" d="M760.783133 373.051647c0 139.173736-112.822578 251.998361-251.998361 251.998361-139.173736 0-251.996314-112.824625-251.996315-251.998361v-386.572336H143.389758v-50.398854h704.019315v50.398854h-86.62594V373.051647z m-50.39783 0v-380.272863H546.586726V570.825013c93.119841-17.774829 163.798577-99.556437 163.798577-197.773366zM307.188334 87.279065h188.998515v-94.500281H307.188334v94.500281z m188.998515 151.197584v-111.028723H307.188334v111.028723h188.998515z m-188.998515 46.563502v88.011496h188.998515v-88.011496H307.188334z m188.998515 288.334941v-149.924591H314.346361c21.50171 82.708723 93.875041 144.365992 181.840488 149.924591zM496.186849 832.946942h50.399877v-157.547199h-50.399877V832.946942zM819.822784 529.505955l83.870176 83.871199 35.637662-35.637661-83.871199-83.870176-35.636639 35.636638zM117.02325 610.232534l80.72044-80.719416-35.637662-35.637662-80.720439 80.72044 35.637661 35.636638zM738.333842 752.418884l43.646056-25.199938-59.015092-102.214987-43.646056 25.199939 59.015092 102.214986zM301.136501 758.10335l62.295812-107.896382-43.644009-25.197892-62.296835 107.897405 43.645032 25.196869z"  horiz-adv-x="1024" />

    
    <glyph glyph-name="danxingkuorong" unicode="&#59638;" d="M529.0974 56.003757H298.952766c-97.620341 0-176.75568 79.136362-176.75568 176.75568 0 39.23049 12.788258 75.469855 34.412765 104.791671 32.320103 42.786479 83.610256 70.440305 141.366681 70.429049 0.939395 0.017396 2.811022 0 2.811022 0l28.081569-0.443091c1.645476-0.11768 11.527544-0.921999 21.671578 10.144034 1.74576 1.905396 3.075035 3.771907 4.091179 5.621021 6.051833 9.429767 3.239787 18.266016 3.239787 29.103852 0 55.056943 16.634866 106.22123 45.138036 148.743696 48.102554 70.943772 129.323391 117.557416 221.421972 117.557416 69.399603 0 132.6256-26.465768 180.156126-69.866231 5.473665-4.995781 4.282536-4.684696 9.32232-10.113335 5.79703-8.222265 15.356756-14.199397 26.312272-14.199397 16.298198 0 29.510104 13.227256 29.510104 29.544896 0 0.200568-0.016373 0.396019-0.020466 0.595565 0.00307 0.164752 0.01228 0.328481 0.01228 0.494257-0.001023 10.121522-5.523807 18.561751-12.429077 25.465998-4.959965 5.412266-4.080945 4.027733-9.393951 9.087982-58.033741 55.260581-136.615471 88.954985-223.057215 88.954985-104.000656 0-196.614983-48.777937-256.282944-124.72363-40.814568-51.498908-66.435085-115.603925-70.110801-185.534623-73.432453-0.268106-138.866744-33.919531-181.953052-86.528726-34.101679-40.920992-54.601572-93.538373-54.601572-150.947897 0-130.383536 105.696274-236.080833 236.07981-236.080833h230.541676c14.32424 0 26.252921 10.194176 28.944216 23.719214a29.481452 29.481452 0 0 1 1.099031 7.966439c0.002047 16.275685-13.189394 29.462009-29.463032 29.462008zM708.757223 436.576449v-55.190996c0-10.169617 8.246825-18.403139 18.404162-18.403139 10.168594 0 25.545816 18.403139 25.545816 18.403139l103.239315 104.252389H708.757223c-128.697127 0-233.038544-104.341417-233.038544-233.043661 0-61.22748 23.794939-116.765377 62.418608-158.354587l34.684964 34.684963c-29.740348 32.688493-48.041156 75.982532-48.041157 123.668601 0 101.606119 82.376149 183.983291 183.976129 183.983291zM896.964722 388.103458l-34.684964-34.692127c29.752628-32.688493 48.043203-75.982532 48.043203-123.673717 0-101.601003-82.377172-183.976128-183.983291-183.976128v55.190996c0 10.158361-8.238638 18.403139-18.391883 18.403139-10.168594 0-25.549909-18.403139-25.549909-18.403139L579.154469-3.299907h147.184177c128.712477 0 233.04366 104.341417 233.043661 233.038544 0 61.232596-23.793916 116.770494-62.417585 158.364821zM713.403033 158.931988h18.055214a9.022491 9.022491 0 0 1 9.026584 9.026584V213.093539h45.134967a9.021467 9.021467 0 0 1 9.026584 9.026584v18.054191a9.021467 9.021467 0 0 1-9.026584 9.026584h-45.133943v45.134966a9.027607 9.027607 0 0 1-9.026584 9.026584h-18.055215a9.026584 9.026584 0 0 1-9.026584-9.026584v-45.134966h-45.13599a9.021467 9.021467 0 0 1-9.02556-9.026584v-18.054191a9.020444 9.020444 0 0 1 9.02556-9.026584h45.13599v-45.134967a9.020444 9.020444 0 0 1 9.025561-9.026584z"  horiz-adv-x="1024" />

    
    <glyph glyph-name="rongzaiqiehuan" unicode="&#59639;" d="M922.543284 313.055205c0 35.579333-28.843932 64.423265-64.423265 64.423265-35.580357 0-64.424288-28.842909-64.424289-64.423265a64.198138 64.198138 0 0 1 35.683711-57.257052c-0.149403-0.896416-0.149403-1.717108-0.149403-2.761904v-137.058562L428.134941-3.014404 159.094438 190.255391l2.090615 376.237967c0.040932 15.842827-12.747325 28.733415-28.591176 28.815279h-0.149402c-15.785521 0-28.617781-12.730952-28.740578-28.516474l-2.313696-390.870222c0-9.331529 4.40431-18.065448 12.018732-23.439852l292.852838-210.289424a28.741601 28.741601 0 0 1 25.232684-4.105504l435.136401 129.220037a28.740578 28.740578 0 0 1 20.604271 27.471678V253.037273c0 0.895393 0 2.015913-0.149403 2.761903a64.270792 64.270792 0 0 1 35.45756 57.256029z m-64.496943-27.545357c-15.172561 0-27.471678 12.299117-27.471679 27.471679 0 15.171538 12.299117 27.471678 27.471679 27.471678 15.171538 0 27.471678-12.300141 27.471678-27.471678 0-15.172561-12.300141-27.471678-27.471678-27.471679zM180.369997 667.943934l358.247221 98.389868v-67.186192l-266.2786-64.721047c-12.963243-2.902096-22.176069-14.412244-22.170952-27.695782V326.567963l-25.977651 17.691941c-13.110599 8.905834-30.958082 5.496178-39.863916-7.614422-8.904811-13.109576-5.496178-30.957059 7.614421-39.862893l213.053374-143.477762a27.997658 27.997658 0 0 1 29.56127-1.419325 28.893051 28.893051 0 0 1 15.303544 25.381063V503.114888l377.357463 91.745541v-155.122987c1.086751-15.07023 13.629415-26.742061 28.739555-26.742061s27.653827 11.67183 28.740578 26.742061V631.140727a28.741601 28.741601 0 0 1-35.607986 27.845185l-106.303094-25.829272V712.211137a28.738531 28.738531 0 0 1-35.607986 27.845185l-111.154589-27.02347v90.849124a29.481452 29.481452 0 0 1-11.347443 22.916942 29.185716 29.185716 0 0 1-25.156959 4.852518L165.066453 723.259774c-15.299451-4.247744-24.279986-20.071128-20.081361-35.384905 4.347005-15.211447 20.12127-24.096814 35.384905-19.930935z m505.009796 7.912204v-56.734143l-270.980692-65.692164c-12.850679-3.14462-21.922289-14.616906-22.022572-27.844162v-294.496268l-84.205821 56.809867V584.26l377.209085 91.596138z"  horiz-adv-x="1024" />

    
    <glyph glyph-name="beifenguanli" unicode="&#59640;" d="M326.379419 145.711895h160.352081V830.90033h-160.352081v-685.188435z m58.818617 619.603717h42.772152V379.923148h-42.772152V765.315612z m21.413705-477.758128c23.64963 0 42.827411-19.176758 42.827411-42.827411 0-23.64963-19.234063-42.827411-42.827411-42.827411-23.595394 0-42.828434 19.177781-42.828434 42.827411 0 23.650653 19.177781 42.827411 42.828434 42.827411zM63.989383 145.711895h160.353105V830.90033H63.989383v-685.188435z m58.762335 619.603717h42.827411V379.923148h-42.827411V765.315612z m21.413706-477.758128c23.650653 0 42.827411-19.176758 42.827411-42.827411 0-23.64963-19.177781-42.827411-42.827411-42.827411-23.650653 0-42.827411 19.177781-42.827411 42.827411 0 23.650653 19.177781 42.827411 42.827411 42.827411zM741.014904 221.359806c-13.307074 0-24.041556-10.790764-24.041556-24.041556v-112.101147c0-13.307074 10.789741-24.041556 24.041556-24.041556h99.633185c13.307074 0 24.041556 10.789741 24.041555 24.041556 0 13.250792-10.789741 24.041556-24.041555 24.041556h-75.590606v88.059591c-0.001023 13.30605-10.736529 24.041556-24.042579 24.041556zM765.05646 323.284173c-5.424546 0-10.567683-1.173732-15.878643-1.62194V830.90033H588.824713v-622.232591c-5.646604-12.635785-10.286274-25.775037-13.19451-39.640835h-48.194652l72.348771-93.593632 72.347748 93.593632h-46.23809c17.22122 60.999282 72.795956 106.063641 139.217738 106.063641 80.0645 0 145.257292-65.136509 145.257292-145.257292 0-80.119759-65.136509-145.256268-145.257292-145.256268-42.436508 0-82.692351 18.506493-110.36869 50.767244-8.66638 10.119475-23.873734 11.294231-33.993208 2.62785-10.120498-8.66638-11.294231-23.873734-2.628874-33.994232 36.845163-42.995233 90.408079-67.651796 146.93449-67.651796 106.733906 0 193.507202 86.773296 193.507203 193.507202 0.001023 106.678648-86.772272 193.45092-193.506179 193.45092zM647.588071 765.315612h42.827411V379.923148h-42.827411V765.315612z"  horiz-adv-x="1024" />

    
    <glyph glyph-name="yingyongbushu" unicode="&#59641;" d="M958.954 625.396c0 14.337-4.124 27.429-12.37 39.261-8.251 11.831-19.184 20.253-32.805 25.278l-378.641 137.687c-7.89 2.866-15.78 4.302-23.663 4.302-7.891 0-15.782-1.434-23.665-4.302l-378.642-137.687c-13.629-5.024-24.563-13.445-32.808-25.278-8.253-11.832-12.371-24.925-12.371-39.261v-413.063c0-12.556 3.226-24.205 9.68-34.96 6.456-10.756 15.236-19.187 26.354-25.278l378.642-206.533c10.034-5.731 20.978-8.605 32.809-8.605 11.83 0 22.764 2.874 32.805 8.605l378.641 206.533c11.111 6.093 19.899 14.521 26.354 25.278 6.455 10.756 9.683 22.405 9.683 34.96v413.063h-0.004zM462.972 16.225l-345.784 188.726-1.267 358.45 347.051-129.193v-417.983zM511.475 489.862l-375.413 136.611 375.413 136.611 375.413-136.611-375.413-136.611zM890.114 212.333l-344.218-187.707v404.457l344.217 125.318v-342.068z"  horiz-adv-x="1024" />

    
    <glyph glyph-name="xunjianguanli" unicode="&#59642;" d="M511.665379 830.941262c-247.251244 0-447.716928-200.465684-447.716928-447.716928s200.465684-447.716928 447.716928-447.716928 447.716928 200.465684 447.716928 447.716928-200.465684 447.716928-447.716928 447.716928z m271.194562-176.522366c35.264155-35.264155 62.914912-76.239382 82.250282-121.92284 15.8285-37.468356 25.446555-76.739778 28.752858-117.213586H766.129908c-14.426571 116.0112-106.394169 207.979822-222.405369 222.40537V765.521297c40.473807-3.306302 79.745229-12.923334 117.213585-28.752858 45.683459-19.434631 86.657662-47.085388 121.921817-82.349543zM479.607242 460.665077l-79.4454 79.4454c23.64349 16.930601 50.692542 28.151154 79.4454 32.860409v-112.305809z m-45.382606-45.382607H321.91985c4.808516 28.652574 16.029068 55.701626 32.860409 79.445401l79.444377-79.445401z m45.382606-64.117296v-157.687392c-39.171138 6.512321-75.337849 25.045419-103.989399 53.697993-28.652574 28.652574-47.185672 64.717977-53.697993 103.989399H479.607242z m64.117297 0h157.687392c-6.512321-39.171138-25.045419-75.337849-53.697993-103.989399-28.652574-28.652574-64.717977-47.185672-103.989399-53.697993V351.165174z m0 64.117296V572.969862c39.171138-6.512321 75.337849-25.045419 103.989399-53.697992 28.652574-28.652574 47.185672-64.717977 53.697993-103.9894H543.724539zM479.607242 765.521297v-127.833457c-46.785559-5.810333-89.763396-24.344454-125.228119-51.894928l-90.365101 90.365101c29.554106 25.045419 62.513776 45.382607 98.279351 60.510142 37.56864 15.829524 76.840062 25.446555 117.313869 28.853142zM218.730677 630.87569l90.3651-90.3651c-27.550473-35.464723-46.083571-78.343299-51.894927-125.22812H129.368416c3.306302 40.473807 12.923334 79.745229 28.752858 117.213586 15.226796 35.865859 35.563984 68.725244 60.609403 98.379634z m21.74014-518.846941c-35.264155 35.264155-62.914912 76.239382-82.250283 121.92284-15.8285 37.468356-25.446555 76.739778-28.752857 117.213585h127.733173c14.426571-116.012224 106.394169-207.979822 222.405369-222.405369v-127.733173c-40.473807 3.306302-79.745229 12.923334-117.213585 28.752858-45.682435 19.334347-86.657662 46.985104-121.921817 82.249259z m542.389124 0c-35.264155-35.264155-76.239382-62.914912-121.92284-82.250283-37.468356-15.8285-76.739778-25.446555-117.213586-28.752857V128.759805c116.0112 14.426571 207.979822 106.394169 222.40537 222.405369H893.862058c-3.306302-40.473807-12.923334-79.745229-28.752858-117.213585-19.334347-45.683459-46.984081-86.658685-82.249259-121.92284z"  horiz-adv-x="1024" />

    
    <glyph glyph-name="xingnengtiaoyou" unicode="&#59643;" d="M511.884366 831.923636c-246.75494 0-447.50101-200.74914-447.50101-447.501011 0-30.354332 3.059686-60.689221 9.093099-90.159415 3.098571-15.134699 17.878183-24.87248 33.011858-21.793353 15.131629 3.098571 24.886807 17.878183 21.790282 33.008788-5.28026 25.790386-7.957229 52.349275-7.957229 78.941934 0 215.907375 175.655625 391.563 391.564024 391.563s391.563-175.655625 391.563-391.563-175.655625-391.565047-391.564024-391.565047c-28.871561 0-57.660234 3.151783-85.567841 9.372461-15.078417 3.361561-30.021757-6.136767-33.384341-21.21723-3.358491-15.078417 6.138814-30.021757 21.217231-33.383318 31.893384-7.106862 64.776306-10.708899 97.731881-10.7089 246.75494 0 447.499987 200.74914 447.499987 447.501011 0.001023 246.750847-200.741977 447.50408-447.496917 447.50408z m224.614688-292.599058L152.065348 393.214872l224.433562-112.215757 70.794369-247.786433 289.205775 506.111896z m-424.168606-163.698293l310.567291 77.641312-158.294212-277.015128-41.080628 143.776567-111.192451 55.597249z"  horiz-adv-x="1024" />

    
    <glyph glyph-name="zuoyepaopi" unicode="&#59644;" d="M930.132122 38.604482H93.02365c-16.074094 0-29.106922 13.049201-29.106922 29.124318V199.127456c0 16.064884 13.032828 29.114085 29.106922 29.114084h308.064284V364.216421c-83.812871 41.698704-136.949069 126.526695-136.949068 221.285872 0 136.440485 110.99393 247.443625 247.427252 247.443626 136.448672 0 247.443625-111.00314 247.443625-247.443626 0-94.759177-53.146431-179.587168-136.940882-221.285872v-135.974881h308.064285c16.065907 0 29.097712-13.039991 29.097711-29.114084v-131.406843c-0.001023-16.066931-13.032828-29.116131-29.098735-29.116131z m-807.992341 58.230216h778.859837v73.185836H592.944544c-16.08228 0-29.114085 13.049201-29.114085 29.114085V383.037069a29.121248 29.121248 0 0 0 18.235316 27.013237c72.117504 29.004591 118.713752 97.877191 118.713752 175.461197 0 104.334253-84.887342 189.213409-189.222619 189.21341-104.325044 0-189.2042-84.879156-189.204199-189.21341 0-77.584006 46.587038-146.456606 118.696356-175.461197a29.111015 29.111015 0 0 0 18.243503-27.013237v-183.909613c0-16.064884-13.031804-29.114085-29.114085-29.114085H122.139781v-73.178673zM69.866231-15.965367h884.406708v-47.086412H69.866231v47.086412z"  horiz-adv-x="1024" />

    
    <glyph glyph-name="ruanjiananzhuang" unicode="&#59645;" d="M956.433138 591.531614c0 0.12689 0 0.189312 0.063445 0.254803 0.51063 0.898463 0.89437 1.793856 1.217735 2.752693 0.25378 0.511653 0.447185 0.961908 0.640589 1.342578 0.25378 0.771573 0.25378 1.411139 0.448208 2.115174 0.189312 0.829901 0.38374 1.531889 0.449232 2.243087 0.064468 0.445138 0 0.829901 0 1.217735 0.064468 1.150196 0.12689 2.172479 0 3.2623-0.066515 0.511653-0.195451 1.025353-0.321318 1.540076-0.12689 0.893346-0.25378 1.858324-0.512677 2.813068-0.125867 0.449231-0.384763 0.835018-0.511653 1.286296a22.376637 22.376637 0 0 1-1.151219 2.937912c0 0.067538-0.063445 0.135076-0.063445 0.196475a14.950504 14.950504 0 0 1-0.829902 1.27811c-0.512676 0.765433-0.961908 1.603521-1.540075 2.307555-0.51063 0.639566-1.089821 1.214664-1.595335 1.728364-0.512676 0.5137-0.961908 1.022283-1.476631 1.470491a17.263176 17.263176 0 0 1-2.49482 1.729388c-0.384763 0.189312-0.64059 0.512676-1.023306 0.701988l-0.38374 0.195451s-0.067538 0-0.130983 0.064469L675.373904 775.722636c-0.12689 0.066515-0.254803 0.130983-0.449231 0.25992-0.701988 0.318248-1.343601 0.577145-2.047636 0.894369a23.12672 23.12672 0 0 1-2.243087 0.898463c-0.445138 0.12689-0.893346 0.191358-1.341554 0.254804a16.723893 16.723893 0 0 1-3.010567 0.639566h-1.023306c-1.152243 0.064468-2.236947 0.064468-3.391237-0.064468-0.447185-0.063445-0.898463-0.189312-1.284249-0.254804-1.02126-0.125867-1.984191-0.320295-3.072989-0.639566-0.514723-0.195451-0.959861-0.384763-1.408069-0.577145-0.961908-0.384763-1.793856-0.701988-2.753717-1.217734l-0.381693-0.195452-141.81182-79.319533-142.194536 79.514985c-0.892323 0.512676-1.857301 0.765433-2.749624 1.152243-0.449231 0.189312-0.898463 0.381693-1.411139 0.577144a19.218714 19.218714 0 0 1-3.199879 0.64059c-0.321318 0.063445-0.700965 0.189312-1.089821 0.25378a22.914896 22.914896 0 0 1-3.583618 0.063445h-0.766456c-1.151219-0.125867-2.242064-0.315178-3.330862-0.639566-0.385786-0.127913-0.701988-0.127913-1.026376-0.191359-0.890276-0.321318-1.659803-0.701988-2.557242-1.090844-0.577145-0.125867-1.217734-0.38374-1.794879-0.701988-0.125867-0.064468-0.316202-0.127913-0.512677-0.25992L74.650187 622.771105c-0.445138-0.254803-0.765433-0.577145-1.083681-0.829901a15.507182 15.507182 0 0 1-2.501984-1.666966l-1.533936-1.530866c-0.511653-0.577145-1.089821-1.090844-1.540076-1.666966-0.64059-0.701988-1.089821-1.603521-1.60045-2.369977-0.25992-0.449231-0.577145-0.765433-0.771573-1.152243-0.064468-0.062422-0.064468-0.189312-0.064469-0.25992-0.5137-0.89437-0.829901-1.857301-1.152242-2.749623-0.189312-0.514723-0.448208-0.960885-0.576122-1.476631-0.25378-0.701988-0.317225-1.469468-0.449231-2.298346-0.125867-0.709151-0.317225-1.348718-0.382717-2.052752v-1.794879c0-0.892323-0.063445-1.728364 0-2.619664 0.064468-0.577145 0.25378-1.217734 0.382717-1.794879 0.134053-0.898463 0.25992-1.728364 0.513699-2.564405 0.25992-0.508583 0.449231-0.89437 0.64059-1.40807 0.385786-0.960885 0.771573-1.921769 1.217735-2.752693 0-0.064468 0.066515-0.125867 0.066514-0.254804 0.12689-0.12689 0.317225-0.254803 0.382717-0.511653a23.766286 23.766286 0 0 1 2.882654-3.774976c0.384763-0.384763 0.765433-0.766456 1.213641-1.152243 0.961908-0.898463 2.047636-1.666966 3.199878-2.494821 0.384763-0.25992 0.771573-0.577145 1.217735-0.835017 0.195451-0.125867 0.321318-0.125867 0.384763-0.189312l122.092709-64.597227-106.08513-51.218522c-0.384763-0.125867-0.765433-0.447185-1.152243-0.64059-0.765433-0.447185-1.475608-0.829901-2.115174-1.341554-0.64059-0.385786-1.152243-0.900509-1.723248-1.411139-0.577145-0.508583-1.152243-0.959861-1.603521-1.53189-0.577145-0.64059-1.089821-1.343601-1.604544-1.921769-0.317225-0.384763-0.639566-0.708128-0.893346-1.090844-0.130983-0.063445-0.195451-0.321318-0.321318-0.512677-0.384763-0.700965-0.766456-1.476631-1.152243-2.115174-0.317225-0.701988-0.64059-1.341554-0.893346-1.921769-0.25992-0.701988-0.384763-1.343601-0.64059-2.049682-0.130983-0.898463-0.322341-1.539053-0.448208-2.307555-0.12689-0.765433-0.12689-1.408069-0.192382-2.052753-0.066515-0.829901-0.130983-1.595334-0.130983-2.236947 0-0.835018 0.130983-1.472538 0.25992-2.178619 0.064468-0.765433 0.189312-1.603521 0.317225-2.307555 0.130983-0.639566 0.322341-1.212618 0.577145-1.921769 0.25992-0.829901 0.5137-1.602498 0.899486-2.367931 0.063445-0.254803 0.125867-0.385786 0.189311-0.64059 0.12689-0.189312 0.322341-0.385786 0.448208-0.640589 0.829901-1.408069 1.665942-2.88163 2.819209-4.161787 0.25378-0.25378 0.445138-0.639566 0.766456-0.898462 1.213641-1.280156 2.494821-2.368954 3.963265-3.450589l137.26527-91.170442c-0.381693-1.604544-0.64059-3.332908-0.640589-5.056156v-135.606491c0-0.381693 0.12689-0.766456 0.12689-1.149173 0.066515-1.151219 0.130983-2.243087 0.321318-3.266393 0.125867-0.765433 0.384763-1.341554 0.64059-2.108011 0.191358-0.772596 0.384763-1.347694 0.640589-2.116197 0.25992-0.765433 0.64059-1.341554 0.960885-1.984191 0.316202-0.639566 0.64059-1.347694 1.090844-1.989307 0.38067-0.639566 0.890276-1.150196 1.341555-1.728364 0.512676-0.509606 0.89437-1.149173 1.408069-1.723248a77.68429 77.68429 0 0 1 2.433422-1.989307c0.384763-0.254803 0.64059-0.64059 1.023306-0.765433l0.064469-0.12689 263.070534-179.971931c0.446162-0.25378 1.022283-0.508583 1.534959-0.765433 0.511653-0.385786 1.025353-0.64059 1.473561-0.893347 0.829901-0.384763 1.659803-0.771573 2.559289-1.024329a31.210839 31.210839 0 0 1 1.278109-0.385787c0.321318-0.125867 0.64059-0.25378 0.960885-0.25378 1.659803-0.385786 3.324722-0.64059 5.056156-0.640589v-0.125867c0.064468 0.125867 0.064468 0.25378 0.064468 0.25378 1.729387 0 3.39533 0.25378 4.997827 0.64059 0.381693 0 0.64059 0.125867 1.022283 0.25378 0.449231 0.130983 0.898463 0.25992 1.27811 0.384763 0.900509 0.25992 1.729387 0.64059 2.50096 1.025353 0.509606 0.25378 1.022283 0.511653 1.470491 0.765433 0.511653 0.385786 1.090844 0.64059 1.473561 0.899486 0.064468 0 0.127913 0 0.127913 0.125866l263.066441 179.964768c0.447185 0.260943 0.771573 0.64059 1.15122 0.90051 0.765433 0.64059 1.603521 1.278109 2.243087 1.8573 0.577145 0.64059 1.025353 1.280156 1.470491 1.729388 0.385786 0.64059 0.900509 1.151219 1.347694 1.728364 0.381693 0.64059 0.701988 1.342578 1.022283 1.984191 0.384763 0.64059 0.771573 1.280156 1.023306 1.984191 0.322341 0.771573 0.514723 1.342578 0.704035 2.115173 0.194428 0.766456 0.447185 1.342578 0.577145 2.111081 0.25992 1.151219 0.320295 2.242064 0.383739 3.393284 0 0.254803 0.12689 0.64059 0.12689 1.026376V330.888362c0 1.729387-0.25378 3.452635-0.640589 4.994757l137.327692 91.233888a33.520441 33.520441 0 0 1 3.972474 3.38919c0.25378 0.322341 0.445138 0.709151 0.701988 0.961908 1.150196 1.280156 2.047636 2.691295 2.880607 4.161786 0.127913 0.189312 0.254803 0.384763 0.381693 0.64059 0.127913 0.189312 0.127913 0.38374 0.260944 0.577144 0.381693 0.829901 0.64059 1.602498 0.894369 2.432399 0.25992 0.701988 0.38374 1.280156 0.64059 1.857301 0.125867 0.772596 0.25992 1.476631 0.25992 2.307555 0.125867 0.701988 0.254803 1.341554 0.254803 2.117221 0 0.765433 0 1.467421-0.064468 2.236947-0.064468 0.771573-0.064468 1.347694-0.189312 2.115174-0.135076 0.701988-0.385786 1.408069-0.512676 2.109034-0.260943 0.771573-0.384763 1.472538-0.701989 2.178619-0.25992 0.64059-0.577145 1.214664-0.835017 1.791809a15.966647 15.966647 0 0 1-1.27811 2.305509c-0.127913 0.12689-0.127913 0.385786-0.254803 0.514723-0.25992 0.381693-0.639566 0.701988-0.898463 1.025353a24.423249 24.423249 0 0 1-1.603521 1.984191 11.17655 11.17655 0 0 1-1.595334 1.470491 11.899004 11.899004 0 0 1-1.729388 1.411139c-0.700965 0.577145-1.472538 1.02433-2.243087 1.408069-0.38067 0.192382-0.765433 0.577145-1.151219 0.701988l-106.017592 51.218522 122.024147 64.534806c0.127913 0.127913 0.25378 0.127913 0.384763 0.254803l1.152243 0.771573c1.278109 0.829901 2.368954 1.600451 3.390214 2.623757 0.384763 0.322341 0.772596 0.701988 1.150196 1.089821 1.152243 1.217734 2.117221 2.494821 2.88163 3.906983 0.188288 0.061398 0.320295 0.188288 0.447185 0.316202h0.008186M664.040788 302.855912l-108.133789 70.551846 218.957851 117.988228 100.128465-48.336892-210.95048-140.203182h-0.002047m-305.771055 0l-211.015971 140.204205 100.132558 48.336892 218.953757-117.988228-108.069321-70.552869h-0.001023m-0.124843 426.640913l106.726743-59.794851-217.420845-126.4479-113.769136 60.119239 224.464261 126.122489-0.001023 0.001023M511.155772 401.253966L294.889217 517.843334 511.155772 643.518638l216.331024-125.675304L511.155772 401.253966m46.227858 268.509406l106.724697 59.797921 224.527706-126.124535-113.702622-60.118216L557.387723 669.764396l-0.004093-0.001024m-211.916481-413.452543c0.254803-0.12689 0.577145-0.260943 0.89437-0.385786 1.278109-0.765433 2.564405-1.341554 3.971451-1.857301 0.577145-0.254803 1.150196-0.512676 1.858324-0.765433 1.857301-0.512676 3.774977-0.772596 5.700839-0.772596 0.063445 0 0.125867-0.12689 0.254803-0.12689 0.063445 0 0.125867 0.12689 0.254804 0.12689 1.924839 0 3.842515 0.25992 5.700838 0.772596 0.64059 0.25378 1.217734 0.51063 1.793856 0.765433 1.341554 0.385786 2.685155 1.025353 3.971452 1.729388 0.254803 0.125867 0.577145 0.25378 0.829901 0.383739l117.608581 76.761268v-274.208199L270.947945 207.267856v98.530061l74.526367-49.488111h-0.007163m405.897474-49.039903l-217.3574-148.532895v274.205129l117.608581-76.761268c0.322341-0.130983 0.577145-0.25992 0.835018-0.383739 1.280156-0.766456 2.623757-1.342578 3.964289-1.858325 0.642636-0.125867 1.152243-0.384763 1.729387-0.640589 1.857301-0.512676 3.844561-0.771573 5.763261-0.771573 0.064468 0 0.12689-0.127913 0.254803-0.127913 0 0 0.067538 0.127913 0.13303 0.127913 1.982144 0 3.963265 0.25992 5.89015 0.897439 0.64059 0.127913 1.217734 0.385786 1.723248 0.64059a25.101701 25.101701 0 0 1 3.971451 1.858324c0.322341 0.25992 0.64059 0.25992 0.90051 0.384763l74.581625 49.489135v-98.530061h-0.001023l0.00307 0.00307m0 0"  horiz-adv-x="1024" />

    
    <glyph glyph-name="peizhibiangeng" unicode="&#59646;" d="M758.270916 758.1187H62.966077v-248.836345h695.303816V758.1187h0.001023z m-49.808406-199.026916H112.774483v51.880601h45.793976V660.779767h-45.793976v47.53155h595.689051v-149.219533h-0.001024zM62.966077 459.272357V212.510254h896.54312V459.272357H62.966077z m846.734714-196.95472H112.774483V409.463951h796.927331v-147.146314h-0.001023zM62.966077 13.278677h794.920628v149.21851H62.966077v-149.21851z m49.808406 99.411127H808.078299v-49.603744H112.774483v49.603744zM407.608441 660.779767H656.649448v-49.807382H407.608441V660.779767zM307.992653 660.779767h49.807383v-49.807382h-49.807383V660.779767zM208.377888 660.779767h49.807382v-49.807382h-49.807382V660.779767zM758.270916 361.933425h99.616812v-49.807382h-99.616812V361.933425zM658.655128 361.933425h49.806359v-49.807382H658.655128V361.933425zM559.039339 361.933425h49.807383v-49.807382h-49.807383V361.933425zM459.422528 361.933425h49.807382v-49.807382h-49.807382V361.933425z"  horiz-adv-x="1024" />

    
    <glyph glyph-name="richangqingli" unicode="&#59647;" d="M879.30655 828.388113c-7.362688 3.827165-13.541411 4.582365-22.673395 2.090614-9.92914-2.838651-13.927197-8.414647-18.927072-17.45044L666.396439 504.772644l-148.607596 69.176522-0.73064 0.39295a5.071506 5.071506 0 0 0-0.956792 0.450255 5.373381 5.373381 0 0 1-0.785899 0.336668l-1.068332 0.393972c-0.257873 0.121773-0.520863 0.23536-0.787945 0.337691-0.337691 0.11154-0.731664 0.167822-1.068332 0.337691l-0.843204 0.225128-1.01205 0.337691-0.843204 0.225127-0.956792 0.225128-0.955768 0.167822-1.013073 0.225127-0.955768 0.111541a5.564739 5.564739 0 0 0-0.956791 0.113587l-0.955768 0.056281c-0.281409 0-0.506537 0.168846-0.843204 0.168846h-1.013074l-0.955768 0.056282h-3.825118c-0.167822-0.113587-0.562818-0.113587-0.786923-0.168846l-0.956791-0.056282c-0.281409-0.11154-0.674359-0.11154-0.955768-0.168845l-0.899486-0.11154a4.799306 4.799306 0 0 0-0.956791-0.225128l-0.899487-0.225127c-0.281409 0-0.562818-0.11154-0.955768-0.224104-0.260943-0.062422-0.523933-0.118704-0.787945-0.168846a6.216585 6.216585 0 0 0-0.956792-0.281409l-0.899486-0.281409a5.003967 5.003967 0 0 1-0.843204-0.281409l-0.843204-0.337691a7.958252 7.958252 0 0 0-0.899486-0.28141c-0.270153-0.154519-0.552585-0.286526-0.843205-0.393973l-0.843204-0.392949-0.899486-0.39295a3.602038 3.602038 0 0 0-0.787946-0.450254c-0.337691-0.11154-0.618077-0.337691-0.843204-0.450255l-0.787946-0.449232-0.843204-0.506536-0.787946-0.450255-0.786923-0.562818-0.787945-0.562819-0.731664-0.562818-0.787946-0.562819-0.618077-0.618076c-0.337691-0.167822-0.562818-0.39295-0.787946-0.618077l-0.73064-0.618077a3.835352 3.835352 0 0 0-0.675383-0.675382l-0.562818-0.618077-0.786922-0.787946-0.562819-0.674359-0.731664-0.731664c-0.169869-0.23843-0.358157-0.463558-0.562818-0.674359l-0.562819-0.843204c-0.183172-0.24764-0.37146-0.491187-0.562818-0.731664l-0.618077-0.899486-0.506537-0.730641-0.562818-0.956791-0.450255-0.787946-0.505513-0.843204-0.393973-0.730641c-60.233849-117.093858-174.121689-213.208916-318.266647-267.818675-15.742543-5.929036-25.871227-21.327748-25.083282-38.130435a38.865169 38.865169 0 0 1 18.559705-34.982746l440.139345-268.887006a37.708833 37.708833 0 0 1 12.148692-4.837169c15.117302-8.851599 34.289967-6.478552 46.791699 5.792937C767.105119 72.955848 840.105736 231.162056 840.61125 386.7793a39.311331 39.311331 0 0 1-6.6914 21.933545 38.518269 38.518269 0 0 1-15.635095 14.285354l-93.190449 46.905286 169.733753 305.387316c10.356882 18.798135 5.412266 41.391712-13.341867 51.827389l-2.179642 1.269923zM609.482195 16.740522l-88.898703 52.928466 49.859572 46.650483c15.276938 15.065114 26.875091 40.942481 12.758581 55.05899-12.795421 12.795421-36.354999 11.175527-51.763944-3.774976l-69.468164-63.724347-98.017385 63.708997 60.10696 35.627429c17.6111 12.33084 23.400966 37.062104 12.856819 52.018747-9.228175 15.798824-36.604686 15.300474-54.216809 2.969635l-80.143295-49.649794-78.147848 43.540656c71.112618 34.403554 144.655588 86.126566 200.288653 142.213979l313.486784-173.804465c-26.770713-67.320245-71.962985-147.505495-126.572744-205.602681l-2.128477 1.838881zM768.691243 354.284211c-1.462305-24.690332-6.160303-47.238884-11.670807-71.871911L463.142246 447.782675c11.040451 14.663978 37.823444 44.149523 47.354517 59.836807L768.691243 375.156588v-20.872377z"  horiz-adv-x="1024" />

    
    <glyph glyph-name="heguijiancha" unicode="&#59648;" d="M441.501366 162.479791h-2.102894l-81.281212 2.101871h-91.792612c-13.313214 0-23.823592-10.510378-23.823592-23.823592 0-11.211343 7.707542-20.320814 18.217921-23.12365 0.700965 0 1.401929 0 2.10187-0.700965h93.894484l84.084047-2.101871h3.5038c11.912307 1.401929 21.020756 11.211343 21.020756 23.823592 0.001023 13.314237-10.509355 23.824615-23.822568 23.824615zM440.800401 301.218622H266.324648c-13.313214 0-23.823592-10.510378-23.823592-23.823592 0-11.211343 7.707542-20.320814 18.217921-23.12365 0.700965 0 1.401929 0 2.10187-0.700965h178.680519c13.313214 0 23.823592 10.510378 23.823592 23.823592 0 13.314237-11.211343 23.824615-24.524557 23.824615zM265.624706 437.856605h-0.700964c-13.313214 0-23.823592-10.510378-23.823592-23.823591 0-13.313214 10.510378-23.823592 23.823592-23.823592h412.013774c1.400906 0 3.5038 0 4.904707 0.700965 11.211343 2.101871 20.320814 11.912307 20.320814 23.823591 0 13.313214-10.510378 23.823592-23.823591 23.823592h-2.102894l-410.611846-0.700965c0.700965 0 0 0 0 0zM915.177526-20.40447l-73.573669 73.573669c20.320814 28.729322 32.232099 63.764256 31.532157 101.602026-2.101871 87.587847-73.573669 159.76061-161.161517 162.563446-96.697319 2.802836-175.175695-75.676563-171.672917-172.372859 2.802836-87.587847 74.975599-159.059646 162.563446-161.161517 37.83777-0.700965 72.873728 10.510378 101.602025 31.532158l73.573669-73.573669c4.904707-4.904707 14.014178-4.904707 18.918885 0l18.918885 18.918885c4.904707 4.903683 4.904707 13.31219-0.700964 18.917861zM587.247798 150.567483c0 68.668962 58.158584 123.323746 127.528512 118.41904 58.859549-4.204765 106.506732-51.851948 110.010533-110.010533 4.904707-69.369927-50.451042-127.528512-118.41904-127.528511-65.866127 0-119.120005 53.253878-119.120005 119.120004zM528.388249-15.49874H152.811338V784.705218h410.612868v-182.183296c0-23.12365 16.817014-42.742477 38.538735-47.648206 2.802836-0.700965 9.109472-0.700965 9.109472-0.700965H792.554744v-184.986132h48.348148V580.099237c0.700965 8.408507-3.5038 18.21792-11.211343 25.925462l-1.401929 1.40193-133.834125 130.331347c-0.700965 0-84.785012 81.982176-85.485976 82.683141-1.400906 1.401929-3.5038 3.5038-5.605672 4.904707-1.401929 1.400906-2.802836 2.101871-4.904706 3.5038-2.802836 1.401929-8.408507 4.203742-14.014179 4.203742H153.511279c-23.12365 0-42.742477-16.817014-47.648206-38.538735-0.700965-2.802836-0.700965-6.306636-0.700965-9.809413v-799.502993c0-23.12365 16.817014-42.742477 38.538735-46.947242 2.802836-0.700965 6.306636-0.700965 9.809413-0.700965H528.388249v46.947242z m83.384105 765.868965l154.855904-147.848303H611.772354V750.370225z"  horiz-adv-x="1024" />

    
    </font>
</defs>
</svg>
